<svg xmlns="http://www.w3.org/2000/svg" xmlns:xlink="http://www.w3.org/1999/xlink" width="600" height="400" viewBox="0 0 2400 1600">
<defs>
  <clipPath id="clip560">
    <rect x="0" y="0" width="2400" height="1600"></rect>
  </clipPath>
</defs>
<path clip-path="url(#clip560)" d="M0 1600 L2400 1600 L2400 0 L0 0  Z" fill="#ffffff" fill-rule="evenodd" fill-opacity="1"></path>
<defs>
  <clipPath id="clip561">
    <rect x="480" y="0" width="1681" height="1600"></rect>
  </clipPath>
</defs>
<path clip-path="url(#clip560)" d="M277.431 1486.45 L2352.76 1486.45 L2352.76 123.472 L277.431 123.472  Z" fill="#ffffff" fill-rule="evenodd" fill-opacity="1"></path>
<defs>
  <clipPath id="clip562">
    <rect x="277" y="123" width="2076" height="1364"></rect>
  </clipPath>
</defs>
<polyline clip-path="url(#clip562)" style="stroke:#000000; stroke-linecap:round; stroke-linejoin:round; stroke-width:2; stroke-opacity:0.1; fill:none" points="277.431,1486.45 277.431,123.472 "></polyline>
<polyline clip-path="url(#clip562)" style="stroke:#000000; stroke-linecap:round; stroke-linejoin:round; stroke-width:2; stroke-opacity:0.1; fill:none" points="692.496,1486.45 692.496,123.472 "></polyline>
<polyline clip-path="url(#clip562)" style="stroke:#000000; stroke-linecap:round; stroke-linejoin:round; stroke-width:2; stroke-opacity:0.1; fill:none" points="1107.56,1486.45 1107.56,123.472 "></polyline>
<polyline clip-path="url(#clip562)" style="stroke:#000000; stroke-linecap:round; stroke-linejoin:round; stroke-width:2; stroke-opacity:0.1; fill:none" points="1522.63,1486.45 1522.63,123.472 "></polyline>
<polyline clip-path="url(#clip562)" style="stroke:#000000; stroke-linecap:round; stroke-linejoin:round; stroke-width:2; stroke-opacity:0.1; fill:none" points="1937.69,1486.45 1937.69,123.472 "></polyline>
<polyline clip-path="url(#clip562)" style="stroke:#000000; stroke-linecap:round; stroke-linejoin:round; stroke-width:2; stroke-opacity:0.1; fill:none" points="2352.76,1486.45 2352.76,123.472 "></polyline>
<polyline clip-path="url(#clip560)" style="stroke:#000000; stroke-linecap:round; stroke-linejoin:round; stroke-width:4; stroke-opacity:1; fill:none" points="277.431,1486.45 2352.76,1486.45 "></polyline>
<polyline clip-path="url(#clip560)" style="stroke:#000000; stroke-linecap:round; stroke-linejoin:round; stroke-width:4; stroke-opacity:1; fill:none" points="277.431,1486.45 277.431,1467.55 "></polyline>
<polyline clip-path="url(#clip560)" style="stroke:#000000; stroke-linecap:round; stroke-linejoin:round; stroke-width:4; stroke-opacity:1; fill:none" points="692.496,1486.45 692.496,1467.55 "></polyline>
<polyline clip-path="url(#clip560)" style="stroke:#000000; stroke-linecap:round; stroke-linejoin:round; stroke-width:4; stroke-opacity:1; fill:none" points="1107.56,1486.45 1107.56,1467.55 "></polyline>
<polyline clip-path="url(#clip560)" style="stroke:#000000; stroke-linecap:round; stroke-linejoin:round; stroke-width:4; stroke-opacity:1; fill:none" points="1522.63,1486.45 1522.63,1467.55 "></polyline>
<polyline clip-path="url(#clip560)" style="stroke:#000000; stroke-linecap:round; stroke-linejoin:round; stroke-width:4; stroke-opacity:1; fill:none" points="1937.69,1486.45 1937.69,1467.55 "></polyline>
<polyline clip-path="url(#clip560)" style="stroke:#000000; stroke-linecap:round; stroke-linejoin:round; stroke-width:4; stroke-opacity:1; fill:none" points="2352.76,1486.45 2352.76,1467.55 "></polyline>
<path clip-path="url(#clip560)" d="M254.815 1517.37 Q251.204 1517.37 249.376 1520.93 Q247.57 1524.47 247.57 1531.6 Q247.57 1538.71 249.376 1542.27 Q251.204 1545.82 254.815 1545.82 Q258.45 1545.82 260.255 1542.27 Q262.084 1538.71 262.084 1531.6 Q262.084 1524.47 260.255 1520.93 Q258.45 1517.37 254.815 1517.37 M254.815 1513.66 Q260.625 1513.66 263.681 1518.27 Q266.76 1522.85 266.76 1531.6 Q266.76 1540.33 263.681 1544.94 Q260.625 1549.52 254.815 1549.52 Q249.005 1549.52 245.926 1544.94 Q242.871 1540.33 242.871 1531.6 Q242.871 1522.85 245.926 1518.27 Q249.005 1513.66 254.815 1513.66 Z" fill="#000000" fill-rule="nonzero" fill-opacity="1"></path><path clip-path="url(#clip560)" d="M274.977 1542.97 L279.861 1542.97 L279.861 1548.85 L274.977 1548.85 L274.977 1542.97 Z" fill="#000000" fill-rule="nonzero" fill-opacity="1"></path><path clip-path="url(#clip560)" d="M300.047 1517.37 Q296.435 1517.37 294.607 1520.93 Q292.801 1524.47 292.801 1531.6 Q292.801 1538.71 294.607 1542.27 Q296.435 1545.82 300.047 1545.82 Q303.681 1545.82 305.486 1542.27 Q307.315 1538.71 307.315 1531.6 Q307.315 1524.47 305.486 1520.93 Q303.681 1517.37 300.047 1517.37 M300.047 1513.66 Q305.857 1513.66 308.912 1518.27 Q311.991 1522.85 311.991 1531.6 Q311.991 1540.33 308.912 1544.94 Q305.857 1549.52 300.047 1549.52 Q294.236 1549.52 291.158 1544.94 Q288.102 1540.33 288.102 1531.6 Q288.102 1522.85 291.158 1518.27 Q294.236 1513.66 300.047 1513.66 Z" fill="#000000" fill-rule="nonzero" fill-opacity="1"></path><path clip-path="url(#clip560)" d="M670.679 1517.37 Q667.068 1517.37 665.239 1520.93 Q663.434 1524.47 663.434 1531.6 Q663.434 1538.71 665.239 1542.27 Q667.068 1545.82 670.679 1545.82 Q674.313 1545.82 676.119 1542.27 Q677.947 1538.71 677.947 1531.6 Q677.947 1524.47 676.119 1520.93 Q674.313 1517.37 670.679 1517.37 M670.679 1513.66 Q676.489 1513.66 679.545 1518.27 Q682.623 1522.85 682.623 1531.6 Q682.623 1540.33 679.545 1544.94 Q676.489 1549.52 670.679 1549.52 Q664.869 1549.52 661.79 1544.94 Q658.735 1540.33 658.735 1531.6 Q658.735 1522.85 661.79 1518.27 Q664.869 1513.66 670.679 1513.66 Z" fill="#000000" fill-rule="nonzero" fill-opacity="1"></path><path clip-path="url(#clip560)" d="M690.841 1542.97 L695.725 1542.97 L695.725 1548.85 L690.841 1548.85 L690.841 1542.97 Z" fill="#000000" fill-rule="nonzero" fill-opacity="1"></path><path clip-path="url(#clip560)" d="M709.938 1544.91 L726.257 1544.91 L726.257 1548.85 L704.313 1548.85 L704.313 1544.91 Q706.975 1542.16 711.558 1537.53 Q716.165 1532.88 717.345 1531.53 Q719.591 1529.01 720.47 1527.27 Q721.373 1525.51 721.373 1523.82 Q721.373 1521.07 719.429 1519.33 Q717.507 1517.6 714.406 1517.6 Q712.206 1517.6 709.753 1518.36 Q707.322 1519.13 704.544 1520.68 L704.544 1515.95 Q707.369 1514.82 709.822 1514.24 Q712.276 1513.66 714.313 1513.66 Q719.683 1513.66 722.878 1516.35 Q726.072 1519.03 726.072 1523.52 Q726.072 1525.65 725.262 1527.57 Q724.475 1529.47 722.368 1532.07 Q721.79 1532.74 718.688 1535.95 Q715.586 1539.15 709.938 1544.91 Z" fill="#000000" fill-rule="nonzero" fill-opacity="1"></path><path clip-path="url(#clip560)" d="M1084.7 1517.37 Q1081.09 1517.37 1079.26 1520.93 Q1077.46 1524.47 1077.46 1531.6 Q1077.46 1538.71 1079.26 1542.27 Q1081.09 1545.82 1084.7 1545.82 Q1088.34 1545.82 1090.14 1542.27 Q1091.97 1538.71 1091.97 1531.6 Q1091.97 1524.47 1090.14 1520.93 Q1088.34 1517.37 1084.7 1517.37 M1084.7 1513.66 Q1090.51 1513.66 1093.57 1518.27 Q1096.65 1522.85 1096.65 1531.6 Q1096.65 1540.33 1093.57 1544.94 Q1090.51 1549.52 1084.7 1549.52 Q1078.89 1549.52 1075.81 1544.94 Q1072.76 1540.33 1072.76 1531.6 Q1072.76 1522.85 1075.81 1518.27 Q1078.89 1513.66 1084.7 1513.66 Z" fill="#000000" fill-rule="nonzero" fill-opacity="1"></path><path clip-path="url(#clip560)" d="M1104.86 1542.97 L1109.75 1542.97 L1109.75 1548.85 L1104.86 1548.85 L1104.86 1542.97 Z" fill="#000000" fill-rule="nonzero" fill-opacity="1"></path><path clip-path="url(#clip560)" d="M1132.78 1518.36 L1120.98 1536.81 L1132.78 1536.81 L1132.78 1518.36 M1131.55 1514.29 L1137.43 1514.29 L1137.43 1536.81 L1142.36 1536.81 L1142.36 1540.7 L1137.43 1540.7 L1137.43 1548.85 L1132.78 1548.85 L1132.78 1540.7 L1117.18 1540.7 L1117.18 1536.19 L1131.55 1514.29 Z" fill="#000000" fill-rule="nonzero" fill-opacity="1"></path><path clip-path="url(#clip560)" d="M1499.93 1517.37 Q1496.32 1517.37 1494.49 1520.93 Q1492.68 1524.47 1492.68 1531.6 Q1492.68 1538.71 1494.49 1542.27 Q1496.32 1545.82 1499.93 1545.82 Q1503.56 1545.82 1505.37 1542.27 Q1507.2 1538.71 1507.2 1531.6 Q1507.2 1524.47 1505.37 1520.93 Q1503.56 1517.37 1499.93 1517.37 M1499.93 1513.66 Q1505.74 1513.66 1508.79 1518.27 Q1511.87 1522.85 1511.87 1531.6 Q1511.87 1540.33 1508.79 1544.94 Q1505.74 1549.52 1499.93 1549.52 Q1494.12 1549.52 1491.04 1544.94 Q1487.98 1540.33 1487.98 1531.6 Q1487.98 1522.85 1491.04 1518.27 Q1494.12 1513.66 1499.93 1513.66 Z" fill="#000000" fill-rule="nonzero" fill-opacity="1"></path><path clip-path="url(#clip560)" d="M1520.09 1542.97 L1524.98 1542.97 L1524.98 1548.85 L1520.09 1548.85 L1520.09 1542.97 Z" fill="#000000" fill-rule="nonzero" fill-opacity="1"></path><path clip-path="url(#clip560)" d="M1545.74 1529.7 Q1542.59 1529.7 1540.74 1531.86 Q1538.91 1534.01 1538.91 1537.76 Q1538.91 1541.49 1540.74 1543.66 Q1542.59 1545.82 1545.74 1545.82 Q1548.89 1545.82 1550.72 1543.66 Q1552.57 1541.49 1552.57 1537.76 Q1552.57 1534.01 1550.72 1531.86 Q1548.89 1529.7 1545.74 1529.7 M1555.02 1515.05 L1555.02 1519.31 Q1553.26 1518.48 1551.46 1518.04 Q1549.67 1517.6 1547.92 1517.6 Q1543.29 1517.6 1540.83 1520.72 Q1538.4 1523.85 1538.05 1530.17 Q1539.42 1528.15 1541.48 1527.09 Q1543.54 1526 1546.02 1526 Q1551.23 1526 1554.23 1529.17 Q1557.27 1532.32 1557.27 1537.76 Q1557.27 1543.08 1554.12 1546.3 Q1550.97 1549.52 1545.74 1549.52 Q1539.74 1549.52 1536.57 1544.94 Q1533.4 1540.33 1533.4 1531.6 Q1533.4 1523.41 1537.29 1518.55 Q1541.18 1513.66 1547.73 1513.66 Q1549.49 1513.66 1551.27 1514.01 Q1553.08 1514.36 1555.02 1515.05 Z" fill="#000000" fill-rule="nonzero" fill-opacity="1"></path><path clip-path="url(#clip560)" d="M1915.12 1517.37 Q1911.51 1517.37 1909.68 1520.93 Q1907.88 1524.47 1907.88 1531.6 Q1907.88 1538.71 1909.68 1542.27 Q1911.51 1545.82 1915.12 1545.82 Q1918.76 1545.82 1920.56 1542.27 Q1922.39 1538.71 1922.39 1531.6 Q1922.39 1524.47 1920.56 1520.93 Q1918.76 1517.37 1915.12 1517.37 M1915.12 1513.66 Q1920.93 1513.66 1923.99 1518.27 Q1927.07 1522.85 1927.07 1531.6 Q1927.07 1540.33 1923.99 1544.94 Q1920.93 1549.52 1915.12 1549.52 Q1909.31 1549.52 1906.23 1544.94 Q1903.18 1540.33 1903.18 1531.6 Q1903.18 1522.85 1906.23 1518.27 Q1909.31 1513.66 1915.12 1513.66 Z" fill="#000000" fill-rule="nonzero" fill-opacity="1"></path><path clip-path="url(#clip560)" d="M1935.28 1542.97 L1940.17 1542.97 L1940.17 1548.85 L1935.28 1548.85 L1935.28 1542.97 Z" fill="#000000" fill-rule="nonzero" fill-opacity="1"></path><path clip-path="url(#clip560)" d="M1960.35 1532.44 Q1957.02 1532.44 1955.1 1534.22 Q1953.2 1536 1953.2 1539.13 Q1953.2 1542.25 1955.1 1544.03 Q1957.02 1545.82 1960.35 1545.82 Q1963.69 1545.82 1965.61 1544.03 Q1967.53 1542.23 1967.53 1539.13 Q1967.53 1536 1965.61 1534.22 Q1963.71 1532.44 1960.35 1532.44 M1955.68 1530.45 Q1952.67 1529.7 1950.98 1527.64 Q1949.31 1525.58 1949.31 1522.62 Q1949.31 1518.48 1952.25 1516.07 Q1955.21 1513.66 1960.35 1513.66 Q1965.51 1513.66 1968.45 1516.07 Q1971.39 1518.48 1971.39 1522.62 Q1971.39 1525.58 1969.7 1527.64 Q1968.04 1529.7 1965.05 1530.45 Q1968.43 1531.23 1970.31 1533.52 Q1972.2 1535.82 1972.2 1539.13 Q1972.2 1544.15 1969.13 1546.83 Q1966.07 1549.52 1960.35 1549.52 Q1954.64 1549.52 1951.56 1546.83 Q1948.5 1544.15 1948.5 1539.13 Q1948.5 1535.82 1950.4 1533.52 Q1952.3 1531.23 1955.68 1530.45 M1953.96 1523.06 Q1953.96 1525.75 1955.63 1527.25 Q1957.32 1528.76 1960.35 1528.76 Q1963.36 1528.76 1965.05 1527.25 Q1966.76 1525.75 1966.76 1523.06 Q1966.76 1520.38 1965.05 1518.87 Q1963.36 1517.37 1960.35 1517.37 Q1957.32 1517.37 1955.63 1518.87 Q1953.96 1520.38 1953.96 1523.06 Z" fill="#000000" fill-rule="nonzero" fill-opacity="1"></path><path clip-path="url(#clip560)" d="M2319.91 1544.91 L2327.55 1544.91 L2327.55 1518.55 L2319.24 1520.21 L2319.24 1515.95 L2327.5 1514.29 L2332.18 1514.29 L2332.18 1544.91 L2339.82 1544.91 L2339.82 1548.85 L2319.91 1548.85 L2319.91 1544.91 Z" fill="#000000" fill-rule="nonzero" fill-opacity="1"></path><path clip-path="url(#clip560)" d="M2349.26 1542.97 L2354.14 1542.97 L2354.14 1548.85 L2349.26 1548.85 L2349.26 1542.97 Z" fill="#000000" fill-rule="nonzero" fill-opacity="1"></path><path clip-path="url(#clip560)" d="M2374.33 1517.37 Q2370.72 1517.37 2368.89 1520.93 Q2367.08 1524.47 2367.08 1531.6 Q2367.08 1538.71 2368.89 1542.27 Q2370.72 1545.82 2374.33 1545.82 Q2377.96 1545.82 2379.77 1542.27 Q2381.6 1538.71 2381.6 1531.6 Q2381.6 1524.47 2379.77 1520.93 Q2377.96 1517.37 2374.33 1517.37 M2374.33 1513.66 Q2380.14 1513.66 2383.2 1518.27 Q2386.27 1522.85 2386.27 1531.6 Q2386.27 1540.33 2383.2 1544.94 Q2380.14 1549.52 2374.33 1549.52 Q2368.52 1549.52 2365.44 1544.94 Q2362.39 1540.33 2362.39 1531.6 Q2362.39 1522.85 2365.44 1518.27 Q2368.52 1513.66 2374.33 1513.66 Z" fill="#000000" fill-rule="nonzero" fill-opacity="1"></path><polyline clip-path="url(#clip562)" style="stroke:#000000; stroke-linecap:round; stroke-linejoin:round; stroke-width:2; stroke-opacity:0.1; fill:none" points="277.431,1458.17 2352.76,1458.17 "></polyline>
<polyline clip-path="url(#clip562)" style="stroke:#000000; stroke-linecap:round; stroke-linejoin:round; stroke-width:2; stroke-opacity:0.1; fill:none" points="277.431,1185.3 2352.76,1185.3 "></polyline>
<polyline clip-path="url(#clip562)" style="stroke:#000000; stroke-linecap:round; stroke-linejoin:round; stroke-width:2; stroke-opacity:0.1; fill:none" points="277.431,912.436 2352.76,912.436 "></polyline>
<polyline clip-path="url(#clip562)" style="stroke:#000000; stroke-linecap:round; stroke-linejoin:round; stroke-width:2; stroke-opacity:0.1; fill:none" points="277.431,639.567 2352.76,639.567 "></polyline>
<polyline clip-path="url(#clip562)" style="stroke:#000000; stroke-linecap:round; stroke-linejoin:round; stroke-width:2; stroke-opacity:0.1; fill:none" points="277.431,366.698 2352.76,366.698 "></polyline>
<polyline clip-path="url(#clip560)" style="stroke:#000000; stroke-linecap:round; stroke-linejoin:round; stroke-width:4; stroke-opacity:1; fill:none" points="277.431,1486.45 277.431,123.472 "></polyline>
<polyline clip-path="url(#clip560)" style="stroke:#000000; stroke-linecap:round; stroke-linejoin:round; stroke-width:4; stroke-opacity:1; fill:none" points="277.431,1458.17 296.329,1458.17 "></polyline>
<polyline clip-path="url(#clip560)" style="stroke:#000000; stroke-linecap:round; stroke-linejoin:round; stroke-width:4; stroke-opacity:1; fill:none" points="277.431,1185.3 296.329,1185.3 "></polyline>
<polyline clip-path="url(#clip560)" style="stroke:#000000; stroke-linecap:round; stroke-linejoin:round; stroke-width:4; stroke-opacity:1; fill:none" points="277.431,912.436 296.329,912.436 "></polyline>
<polyline clip-path="url(#clip560)" style="stroke:#000000; stroke-linecap:round; stroke-linejoin:round; stroke-width:4; stroke-opacity:1; fill:none" points="277.431,639.567 296.329,639.567 "></polyline>
<polyline clip-path="url(#clip560)" style="stroke:#000000; stroke-linecap:round; stroke-linejoin:round; stroke-width:4; stroke-opacity:1; fill:none" points="277.431,366.698 296.329,366.698 "></polyline>
<path clip-path="url(#clip560)" d="M57.7745 1477.97 L74.0939 1477.97 L74.0939 1481.9 L52.1495 1481.9 L52.1495 1477.97 Q54.8115 1475.21 59.3949 1470.58 Q64.0013 1465.93 65.1819 1464.59 Q67.4272 1462.06 68.3068 1460.33 Q69.2096 1458.57 69.2096 1456.88 Q69.2096 1454.12 67.2652 1452.39 Q65.3439 1450.65 62.2421 1450.65 Q60.043 1450.65 57.5893 1451.41 Q55.1588 1452.18 52.381 1453.73 L52.381 1449.01 Q55.2051 1447.87 57.6588 1447.29 Q60.1124 1446.72 62.1495 1446.72 Q67.5198 1446.72 70.7142 1449.4 Q73.9087 1452.09 73.9087 1456.58 Q73.9087 1458.71 73.0985 1460.63 Q72.3115 1462.53 70.205 1465.12 Q69.6263 1465.79 66.5245 1469.01 Q63.4226 1472.2 57.7745 1477.97 Z" fill="#000000" fill-rule="nonzero" fill-opacity="1"></path><path clip-path="url(#clip560)" d="M83.9086 1476.02 L88.7928 1476.02 L88.7928 1481.9 L83.9086 1481.9 L83.9086 1476.02 Z" fill="#000000" fill-rule="nonzero" fill-opacity="1"></path><path clip-path="url(#clip560)" d="M108.978 1450.42 Q105.367 1450.42 103.538 1453.98 Q101.733 1457.53 101.733 1464.66 Q101.733 1471.76 103.538 1475.33 Q105.367 1478.87 108.978 1478.87 Q112.612 1478.87 114.418 1475.33 Q116.246 1471.76 116.246 1464.66 Q116.246 1457.53 114.418 1453.98 Q112.612 1450.42 108.978 1450.42 M108.978 1446.72 Q114.788 1446.72 117.844 1451.32 Q120.922 1455.91 120.922 1464.66 Q120.922 1473.38 117.844 1477.99 Q114.788 1482.57 108.978 1482.57 Q103.168 1482.57 100.089 1477.99 Q97.0335 1473.38 97.0335 1464.66 Q97.0335 1455.91 100.089 1451.32 Q103.168 1446.72 108.978 1446.72 Z" fill="#000000" fill-rule="nonzero" fill-opacity="1"></path><path clip-path="url(#clip560)" d="M157.311 1456.44 L146.732 1467.06 L157.311 1477.64 L154.556 1480.44 L143.931 1469.82 L133.306 1480.44 L130.575 1477.64 L141.131 1467.06 L130.575 1456.44 L133.306 1453.64 L143.931 1464.26 L154.556 1453.64 L157.311 1456.44 Z" fill="#000000" fill-rule="nonzero" fill-opacity="1"></path><path clip-path="url(#clip560)" d="M169.672 1477.97 L177.311 1477.97 L177.311 1451.6 L169.001 1453.27 L169.001 1449.01 L177.265 1447.34 L181.94 1447.34 L181.94 1477.97 L189.579 1477.97 L189.579 1481.9 L169.672 1481.9 L169.672 1477.97 Z" fill="#000000" fill-rule="nonzero" fill-opacity="1"></path><path clip-path="url(#clip560)" d="M209.024 1450.42 Q205.413 1450.42 203.584 1453.98 Q201.778 1457.53 201.778 1464.66 Q201.778 1471.76 203.584 1475.33 Q205.413 1478.87 209.024 1478.87 Q212.658 1478.87 214.463 1475.33 Q216.292 1471.76 216.292 1464.66 Q216.292 1457.53 214.463 1453.98 Q212.658 1450.42 209.024 1450.42 M209.024 1446.72 Q214.834 1446.72 217.889 1451.32 Q220.968 1455.91 220.968 1464.66 Q220.968 1473.38 217.889 1477.99 Q214.834 1482.57 209.024 1482.57 Q203.214 1482.57 200.135 1477.99 Q197.079 1473.38 197.079 1464.66 Q197.079 1455.91 200.135 1451.32 Q203.214 1446.72 209.024 1446.72 Z" fill="#000000" fill-rule="nonzero" fill-opacity="1"></path><path clip-path="url(#clip560)" d="M233.645 1429.72 L224.053 1444.71 L233.645 1444.71 L233.645 1429.72 M232.648 1426.41 L237.425 1426.41 L237.425 1444.71 L241.431 1444.71 L241.431 1447.87 L237.425 1447.87 L237.425 1454.49 L233.645 1454.49 L233.645 1447.87 L220.968 1447.87 L220.968 1444.2 L232.648 1426.41 Z" fill="#000000" fill-rule="nonzero" fill-opacity="1"></path><path clip-path="url(#clip560)" d="M66.5939 1178.55 L54.7884 1196.99 L66.5939 1196.99 L66.5939 1178.55 M65.367 1174.47 L71.2466 1174.47 L71.2466 1196.99 L76.1772 1196.99 L76.1772 1200.88 L71.2466 1200.88 L71.2466 1209.03 L66.5939 1209.03 L66.5939 1200.88 L50.9921 1200.88 L50.9921 1196.37 L65.367 1174.47 Z" fill="#000000" fill-rule="nonzero" fill-opacity="1"></path><path clip-path="url(#clip560)" d="M83.9086 1203.15 L88.7928 1203.15 L88.7928 1209.03 L83.9086 1209.03 L83.9086 1203.15 Z" fill="#000000" fill-rule="nonzero" fill-opacity="1"></path><path clip-path="url(#clip560)" d="M108.978 1177.55 Q105.367 1177.55 103.538 1181.12 Q101.733 1184.66 101.733 1191.79 Q101.733 1198.89 103.538 1202.46 Q105.367 1206 108.978 1206 Q112.612 1206 114.418 1202.46 Q116.246 1198.89 116.246 1191.79 Q116.246 1184.66 114.418 1181.12 Q112.612 1177.55 108.978 1177.55 M108.978 1173.85 Q114.788 1173.85 117.844 1178.45 Q120.922 1183.04 120.922 1191.79 Q120.922 1200.51 117.844 1205.12 Q114.788 1209.7 108.978 1209.7 Q103.168 1209.7 100.089 1205.12 Q97.0335 1200.51 97.0335 1191.79 Q97.0335 1183.04 100.089 1178.45 Q103.168 1173.85 108.978 1173.85 Z" fill="#000000" fill-rule="nonzero" fill-opacity="1"></path><path clip-path="url(#clip560)" d="M157.311 1183.57 L146.732 1194.19 L157.311 1204.77 L154.556 1207.57 L143.931 1196.95 L133.306 1207.57 L130.575 1204.77 L141.131 1194.19 L130.575 1183.57 L133.306 1180.77 L143.931 1191.39 L154.556 1180.77 L157.311 1183.57 Z" fill="#000000" fill-rule="nonzero" fill-opacity="1"></path><path clip-path="url(#clip560)" d="M169.672 1205.1 L177.311 1205.1 L177.311 1178.73 L169.001 1180.4 L169.001 1176.14 L177.265 1174.47 L181.94 1174.47 L181.94 1205.1 L189.579 1205.1 L189.579 1209.03 L169.672 1209.03 L169.672 1205.1 Z" fill="#000000" fill-rule="nonzero" fill-opacity="1"></path><path clip-path="url(#clip560)" d="M209.024 1177.55 Q205.413 1177.55 203.584 1181.12 Q201.778 1184.66 201.778 1191.79 Q201.778 1198.89 203.584 1202.46 Q205.413 1206 209.024 1206 Q212.658 1206 214.463 1202.46 Q216.292 1198.89 216.292 1191.79 Q216.292 1184.66 214.463 1181.12 Q212.658 1177.55 209.024 1177.55 M209.024 1173.85 Q214.834 1173.85 217.889 1178.45 Q220.968 1183.04 220.968 1191.79 Q220.968 1200.51 217.889 1205.12 Q214.834 1209.7 209.024 1209.7 Q203.214 1209.7 200.135 1205.12 Q197.079 1200.51 197.079 1191.79 Q197.079 1183.04 200.135 1178.45 Q203.214 1173.85 209.024 1173.85 Z" fill="#000000" fill-rule="nonzero" fill-opacity="1"></path><path clip-path="url(#clip560)" d="M233.645 1156.85 L224.053 1171.84 L233.645 1171.84 L233.645 1156.85 M232.648 1153.54 L237.425 1153.54 L237.425 1171.84 L241.431 1171.84 L241.431 1175 L237.425 1175 L237.425 1181.62 L233.645 1181.62 L233.645 1175 L220.968 1175 L220.968 1171.33 L232.648 1153.54 Z" fill="#000000" fill-rule="nonzero" fill-opacity="1"></path><path clip-path="url(#clip560)" d="M64.3254 917.02 Q61.1773 917.02 59.3254 919.173 Q57.4967 921.325 57.4967 925.075 Q57.4967 928.802 59.3254 930.978 Q61.1773 933.131 64.3254 933.131 Q67.4735 933.131 69.3022 930.978 Q71.1541 928.802 71.1541 925.075 Q71.1541 921.325 69.3022 919.173 Q67.4735 917.02 64.3254 917.02 M73.6077 902.367 L73.6077 906.626 Q71.8485 905.793 70.0429 905.353 Q68.2606 904.913 66.5013 904.913 Q61.8717 904.913 59.418 908.038 Q56.9875 911.163 56.6402 917.483 Q58.006 915.469 60.0662 914.404 Q62.1263 913.316 64.6032 913.316 Q69.8115 913.316 72.8207 916.487 Q75.8531 919.636 75.8531 925.075 Q75.8531 930.399 72.705 933.617 Q69.5568 936.835 64.3254 936.835 Q58.33 936.835 55.1588 932.251 Q51.9875 927.645 51.9875 918.918 Q51.9875 910.724 55.8764 905.862 Q59.7652 900.978 66.3161 900.978 Q68.0754 900.978 69.8578 901.325 Q71.6633 901.673 73.6077 902.367 Z" fill="#000000" fill-rule="nonzero" fill-opacity="1"></path><path clip-path="url(#clip560)" d="M83.9086 930.284 L88.7928 930.284 L88.7928 936.163 L83.9086 936.163 L83.9086 930.284 Z" fill="#000000" fill-rule="nonzero" fill-opacity="1"></path><path clip-path="url(#clip560)" d="M108.978 904.682 Q105.367 904.682 103.538 908.247 Q101.733 911.788 101.733 918.918 Q101.733 926.024 103.538 929.589 Q105.367 933.131 108.978 933.131 Q112.612 933.131 114.418 929.589 Q116.246 926.024 116.246 918.918 Q116.246 911.788 114.418 908.247 Q112.612 904.682 108.978 904.682 M108.978 900.978 Q114.788 900.978 117.844 905.585 Q120.922 910.168 120.922 918.918 Q120.922 927.645 117.844 932.251 Q114.788 936.835 108.978 936.835 Q103.168 936.835 100.089 932.251 Q97.0335 927.645 97.0335 918.918 Q97.0335 910.168 100.089 905.585 Q103.168 900.978 108.978 900.978 Z" fill="#000000" fill-rule="nonzero" fill-opacity="1"></path><path clip-path="url(#clip560)" d="M157.311 910.7 L146.732 921.325 L157.311 931.904 L154.556 934.705 L143.931 924.08 L133.306 934.705 L130.575 931.904 L141.131 921.325 L130.575 910.7 L133.306 907.9 L143.931 918.524 L154.556 907.9 L157.311 910.7 Z" fill="#000000" fill-rule="nonzero" fill-opacity="1"></path><path clip-path="url(#clip560)" d="M169.672 932.228 L177.311 932.228 L177.311 905.862 L169.001 907.529 L169.001 903.27 L177.265 901.603 L181.94 901.603 L181.94 932.228 L189.579 932.228 L189.579 936.163 L169.672 936.163 L169.672 932.228 Z" fill="#000000" fill-rule="nonzero" fill-opacity="1"></path><path clip-path="url(#clip560)" d="M209.024 904.682 Q205.413 904.682 203.584 908.247 Q201.778 911.788 201.778 918.918 Q201.778 926.024 203.584 929.589 Q205.413 933.131 209.024 933.131 Q212.658 933.131 214.463 929.589 Q216.292 926.024 216.292 918.918 Q216.292 911.788 214.463 908.247 Q212.658 904.682 209.024 904.682 M209.024 900.978 Q214.834 900.978 217.889 905.585 Q220.968 910.168 220.968 918.918 Q220.968 927.645 217.889 932.251 Q214.834 936.835 209.024 936.835 Q203.214 936.835 200.135 932.251 Q197.079 927.645 197.079 918.918 Q197.079 910.168 200.135 905.585 Q203.214 900.978 209.024 900.978 Z" fill="#000000" fill-rule="nonzero" fill-opacity="1"></path><path clip-path="url(#clip560)" d="M233.645 883.983 L224.053 898.973 L233.645 898.973 L233.645 883.983 M232.648 880.673 L237.425 880.673 L237.425 898.973 L241.431 898.973 L241.431 902.133 L237.425 902.133 L237.425 908.753 L233.645 908.753 L233.645 902.133 L220.968 902.133 L220.968 898.465 L232.648 880.673 Z" fill="#000000" fill-rule="nonzero" fill-opacity="1"></path><path clip-path="url(#clip560)" d="M63.7467 646.883 Q60.4134 646.883 58.4921 648.665 Q56.5939 650.447 56.5939 653.572 Q56.5939 656.697 58.4921 658.48 Q60.4134 660.262 63.7467 660.262 Q67.08 660.262 69.0013 658.48 Q70.9226 656.674 70.9226 653.572 Q70.9226 650.447 69.0013 648.665 Q67.1032 646.883 63.7467 646.883 M59.0708 644.892 Q56.0615 644.151 54.3717 642.091 Q52.7051 640.031 52.7051 637.068 Q52.7051 632.924 55.6449 630.517 Q58.6078 628.11 63.7467 628.11 Q68.9087 628.11 71.8485 630.517 Q74.7883 632.924 74.7883 637.068 Q74.7883 640.031 73.0985 642.091 Q71.4318 644.151 68.4457 644.892 Q71.8253 645.679 73.7003 647.971 Q75.5985 650.262 75.5985 653.572 Q75.5985 658.596 72.5198 661.281 Q69.4642 663.966 63.7467 663.966 Q58.0291 663.966 54.9504 661.281 Q51.8949 658.596 51.8949 653.572 Q51.8949 650.262 53.793 647.971 Q55.6912 645.679 59.0708 644.892 M57.3578 637.508 Q57.3578 640.193 59.0245 641.698 Q60.7143 643.202 63.7467 643.202 Q66.7559 643.202 68.4457 641.698 Q70.1587 640.193 70.1587 637.508 Q70.1587 634.823 68.4457 633.318 Q66.7559 631.813 63.7467 631.813 Q60.7143 631.813 59.0245 633.318 Q57.3578 634.823 57.3578 637.508 Z" fill="#000000" fill-rule="nonzero" fill-opacity="1"></path><path clip-path="url(#clip560)" d="M83.9086 657.415 L88.7928 657.415 L88.7928 663.295 L83.9086 663.295 L83.9086 657.415 Z" fill="#000000" fill-rule="nonzero" fill-opacity="1"></path><path clip-path="url(#clip560)" d="M108.978 631.813 Q105.367 631.813 103.538 635.378 Q101.733 638.92 101.733 646.049 Q101.733 653.156 103.538 656.721 Q105.367 660.262 108.978 660.262 Q112.612 660.262 114.418 656.721 Q116.246 653.156 116.246 646.049 Q116.246 638.92 114.418 635.378 Q112.612 631.813 108.978 631.813 M108.978 628.11 Q114.788 628.11 117.844 632.716 Q120.922 637.299 120.922 646.049 Q120.922 654.776 117.844 659.383 Q114.788 663.966 108.978 663.966 Q103.168 663.966 100.089 659.383 Q97.0335 654.776 97.0335 646.049 Q97.0335 637.299 100.089 632.716 Q103.168 628.11 108.978 628.11 Z" fill="#000000" fill-rule="nonzero" fill-opacity="1"></path><path clip-path="url(#clip560)" d="M157.311 637.832 L146.732 648.457 L157.311 659.035 L154.556 661.836 L143.931 651.211 L133.306 661.836 L130.575 659.035 L141.131 648.457 L130.575 637.832 L133.306 635.031 L143.931 645.656 L154.556 635.031 L157.311 637.832 Z" fill="#000000" fill-rule="nonzero" fill-opacity="1"></path><path clip-path="url(#clip560)" d="M169.672 659.359 L177.311 659.359 L177.311 632.994 L169.001 634.661 L169.001 630.401 L177.265 628.735 L181.94 628.735 L181.94 659.359 L189.579 659.359 L189.579 663.295 L169.672 663.295 L169.672 659.359 Z" fill="#000000" fill-rule="nonzero" fill-opacity="1"></path><path clip-path="url(#clip560)" d="M209.024 631.813 Q205.413 631.813 203.584 635.378 Q201.778 638.92 201.778 646.049 Q201.778 653.156 203.584 656.721 Q205.413 660.262 209.024 660.262 Q212.658 660.262 214.463 656.721 Q216.292 653.156 216.292 646.049 Q216.292 638.92 214.463 635.378 Q212.658 631.813 209.024 631.813 M209.024 628.11 Q214.834 628.11 217.889 632.716 Q220.968 637.299 220.968 646.049 Q220.968 654.776 217.889 659.383 Q214.834 663.966 209.024 663.966 Q203.214 663.966 200.135 659.383 Q197.079 654.776 197.079 646.049 Q197.079 637.299 200.135 632.716 Q203.214 628.11 209.024 628.11 Z" fill="#000000" fill-rule="nonzero" fill-opacity="1"></path><path clip-path="url(#clip560)" d="M233.645 611.114 L224.053 626.104 L233.645 626.104 L233.645 611.114 M232.648 607.804 L237.425 607.804 L237.425 626.104 L241.431 626.104 L241.431 629.264 L237.425 629.264 L237.425 635.884 L233.645 635.884 L233.645 629.264 L220.968 629.264 L220.968 625.596 L232.648 607.804 Z" fill="#000000" fill-rule="nonzero" fill-opacity="1"></path><path clip-path="url(#clip560)" d="M56.8515 386.491 L64.4903 386.491 L64.4903 360.125 L56.1802 361.792 L56.1802 357.533 L64.444 355.866 L69.1199 355.866 L69.1199 386.491 L76.7588 386.491 L76.7588 390.426 L56.8515 390.426 L56.8515 386.491 Z" fill="#000000" fill-rule="nonzero" fill-opacity="1"></path><path clip-path="url(#clip560)" d="M86.2032 384.546 L91.0874 384.546 L91.0874 390.426 L86.2032 390.426 L86.2032 384.546 Z" fill="#000000" fill-rule="nonzero" fill-opacity="1"></path><path clip-path="url(#clip560)" d="M111.272 358.945 Q107.661 358.945 105.833 362.509 Q104.027 366.051 104.027 373.181 Q104.027 380.287 105.833 383.852 Q107.661 387.394 111.272 387.394 Q114.907 387.394 116.712 383.852 Q118.541 380.287 118.541 373.181 Q118.541 366.051 116.712 362.509 Q114.907 358.945 111.272 358.945 M111.272 355.241 Q117.083 355.241 120.138 359.847 Q123.217 364.431 123.217 373.181 Q123.217 381.908 120.138 386.514 Q117.083 391.097 111.272 391.097 Q105.462 391.097 102.384 386.514 Q99.3281 381.908 99.3281 373.181 Q99.3281 364.431 102.384 359.847 Q105.462 355.241 111.272 355.241 Z" fill="#000000" fill-rule="nonzero" fill-opacity="1"></path><path clip-path="url(#clip560)" d="M159.606 364.963 L149.027 375.588 L159.606 386.167 L156.851 388.968 L146.226 378.343 L135.601 388.968 L132.87 386.167 L143.425 375.588 L132.87 364.963 L135.601 362.162 L146.226 372.787 L156.851 362.162 L159.606 364.963 Z" fill="#000000" fill-rule="nonzero" fill-opacity="1"></path><path clip-path="url(#clip560)" d="M171.967 386.491 L179.605 386.491 L179.605 360.125 L171.295 361.792 L171.295 357.533 L179.559 355.866 L184.235 355.866 L184.235 386.491 L191.874 386.491 L191.874 390.426 L171.967 390.426 L171.967 386.491 Z" fill="#000000" fill-rule="nonzero" fill-opacity="1"></path><path clip-path="url(#clip560)" d="M211.318 358.945 Q207.707 358.945 205.878 362.509 Q204.073 366.051 204.073 373.181 Q204.073 380.287 205.878 383.852 Q207.707 387.394 211.318 387.394 Q214.952 387.394 216.758 383.852 Q218.587 380.287 218.587 373.181 Q218.587 366.051 216.758 362.509 Q214.952 358.945 211.318 358.945 M211.318 355.241 Q217.128 355.241 220.184 359.847 Q223.263 364.431 223.263 373.181 Q223.263 381.908 220.184 386.514 Q217.128 391.097 211.318 391.097 Q205.508 391.097 202.429 386.514 Q199.374 381.908 199.374 373.181 Q199.374 364.431 202.429 359.847 Q205.508 355.241 211.318 355.241 Z" fill="#000000" fill-rule="nonzero" fill-opacity="1"></path><path clip-path="url(#clip560)" d="M224.448 334.936 L239.362 334.936 L239.362 338.133 L227.927 338.133 L227.927 345.017 Q228.754 344.734 229.582 344.603 Q230.41 344.452 231.237 344.452 Q235.939 344.452 238.685 347.029 Q241.431 349.606 241.431 354.007 Q241.431 358.539 238.61 361.06 Q235.789 363.561 230.654 363.561 Q228.886 363.561 227.043 363.26 Q225.219 362.959 223.263 362.357 L223.263 358.539 Q224.955 359.461 226.761 359.912 Q228.566 360.364 230.579 360.364 Q233.833 360.364 235.732 358.652 Q237.632 356.941 237.632 354.007 Q237.632 351.073 235.732 349.361 Q233.833 347.65 230.579 347.65 Q229.055 347.65 227.532 347.988 Q226.027 348.327 224.448 349.041 L224.448 334.936 Z" fill="#000000" fill-rule="nonzero" fill-opacity="1"></path><path clip-path="url(#clip560)" d="M1198.51 12.096 L1210.7 12.096 L1226.14 53.2532 L1241.65 12.096 L1253.84 12.096 L1253.84 72.576 L1245.86 72.576 L1245.86 19.4686 L1230.27 60.9499 L1222.04 60.9499 L1206.45 19.4686 L1206.45 72.576 L1198.51 72.576 L1198.51 12.096 Z" fill="#000000" fill-rule="nonzero" fill-opacity="1"></path><path clip-path="url(#clip560)" d="M1287.34 32.4315 Q1281.35 32.4315 1277.87 37.1306 Q1274.38 41.7891 1274.38 49.9314 Q1274.38 58.0738 1277.83 62.7728 Q1281.31 67.4314 1287.34 67.4314 Q1293.3 67.4314 1296.78 62.7323 Q1300.27 58.0333 1300.27 49.9314 Q1300.27 41.8701 1296.78 37.1711 Q1293.3 32.4315 1287.34 32.4315 M1287.34 26.1121 Q1297.07 26.1121 1302.62 32.4315 Q1308.17 38.7509 1308.17 49.9314 Q1308.17 61.0714 1302.62 67.4314 Q1297.07 73.7508 1287.34 73.7508 Q1277.58 73.7508 1272.03 67.4314 Q1266.52 61.0714 1266.52 49.9314 Q1266.52 38.7509 1272.03 32.4315 Q1277.58 26.1121 1287.34 26.1121 Z" fill="#000000" fill-rule="nonzero" fill-opacity="1"></path><path clip-path="url(#clip560)" d="M1350.38 34.0924 L1350.38 9.54393 L1357.83 9.54393 L1357.83 72.576 L1350.38 72.576 L1350.38 65.7705 Q1348.03 69.8214 1344.42 71.8063 Q1340.86 73.7508 1335.83 73.7508 Q1327.61 73.7508 1322.43 67.1883 Q1317.28 60.6258 1317.28 49.9314 Q1317.28 39.2371 1322.43 32.6746 Q1327.61 26.1121 1335.83 26.1121 Q1340.86 26.1121 1344.42 28.0971 Q1348.03 30.0415 1350.38 34.0924 M1324.98 49.9314 Q1324.98 58.1548 1328.34 62.8538 Q1331.74 67.5124 1337.66 67.5124 Q1343.57 67.5124 1346.97 62.8538 Q1350.38 58.1548 1350.38 49.9314 Q1350.38 41.7081 1346.97 37.0496 Q1343.57 32.3505 1337.66 32.3505 Q1331.74 32.3505 1328.34 37.0496 Q1324.98 41.7081 1324.98 49.9314 Z" fill="#000000" fill-rule="nonzero" fill-opacity="1"></path><path clip-path="url(#clip560)" d="M1411.99 48.0275 L1411.99 51.6733 L1377.72 51.6733 Q1378.21 59.3701 1382.34 63.421 Q1386.51 67.4314 1393.92 67.4314 Q1398.22 67.4314 1402.23 66.3781 Q1406.28 65.3249 1410.25 63.2184 L1410.25 70.267 Q1406.24 71.9684 1402.03 72.8596 Q1397.81 73.7508 1393.48 73.7508 Q1382.62 73.7508 1376.26 67.4314 Q1369.94 61.1119 1369.94 50.3365 Q1369.94 39.1965 1375.94 32.6746 Q1381.97 26.1121 1392.18 26.1121 Q1401.34 26.1121 1406.64 32.0264 Q1411.99 37.9003 1411.99 48.0275 M1404.54 45.84 Q1404.46 39.7232 1401.09 36.0774 Q1397.77 32.4315 1392.26 32.4315 Q1386.02 32.4315 1382.26 35.9558 Q1378.53 39.4801 1377.96 45.8805 L1404.54 45.84 Z" fill="#000000" fill-rule="nonzero" fill-opacity="1"></path><path clip-path="url(#clip560)" d="M1424.22 9.54393 L1431.68 9.54393 L1431.68 72.576 L1424.22 72.576 L1424.22 9.54393 Z" fill="#000000" fill-rule="nonzero" fill-opacity="1"></path><polyline clip-path="url(#clip562)" style="stroke:#009af9; stroke-linecap:round; stroke-linejoin:round; stroke-width:4; stroke-opacity:1; fill:none" points="277.431,639.567 486.408,755.772 1013.38,1007.1 1703.24,1263.28 2352.76,1447.87 "></polyline>
<polyline clip-path="url(#clip562)" style="stroke:#e26f46; stroke-linecap:round; stroke-linejoin:round; stroke-width:4; stroke-opacity:1; fill:none" points="277.431,162.047 486.408,282.845 1013.38,538.917 1703.24,788.55 2352.76,955.847 "></polyline>
<path clip-path="url(#clip560)" d="M1935.31 324.425 L2283.58 324.425 L2283.58 168.905 L1935.31 168.905  Z" fill="#ffffff" fill-rule="evenodd" fill-opacity="1"></path>
<polyline clip-path="url(#clip560)" style="stroke:#000000; stroke-linecap:round; stroke-linejoin:round; stroke-width:4; stroke-opacity:1; fill:none" points="1935.31,324.425 2283.58,324.425 2283.58,168.905 1935.31,168.905 1935.31,324.425 "></polyline>
<polyline clip-path="url(#clip560)" style="stroke:#009af9; stroke-linecap:round; stroke-linejoin:round; stroke-width:4; stroke-opacity:1; fill:none" points="1958.37,220.745 2096.72,220.745 "></polyline>
<path clip-path="url(#clip560)" d="M2121.35 203.465 L2126.38 203.465 L2134.96 216.312 L2143.6 203.465 L2148.62 203.465 L2137.51 220.062 L2149.36 238.025 L2144.34 238.025 L2134.62 223.326 L2124.83 238.025 L2119.78 238.025 L2132.12 219.576 L2121.35 203.465 Z" fill="#000000" fill-rule="nonzero" fill-opacity="1"></path><path clip-path="url(#clip560)" d="M2186.91 212.863 L2186.91 216.891 Q2185.1 215.965 2183.16 215.502 Q2181.21 215.039 2179.13 215.039 Q2175.96 215.039 2174.36 216.011 Q2172.79 216.983 2172.79 218.928 Q2172.79 220.409 2173.92 221.265 Q2175.06 222.099 2178.48 222.863 L2179.94 223.187 Q2184.48 224.159 2186.38 225.941 Q2188.3 227.701 2188.3 230.872 Q2188.3 234.483 2185.43 236.589 Q2182.58 238.696 2177.58 238.696 Q2175.5 238.696 2173.23 238.279 Q2170.98 237.886 2168.48 237.076 L2168.48 232.677 Q2170.84 233.904 2173.14 234.529 Q2175.43 235.131 2177.67 235.131 Q2180.68 235.131 2182.3 234.113 Q2183.92 233.071 2183.92 231.196 Q2183.92 229.46 2182.74 228.534 Q2181.58 227.608 2177.63 226.752 L2176.14 226.404 Q2172.19 225.571 2170.43 223.858 Q2168.67 222.122 2168.67 219.113 Q2168.67 215.455 2171.26 213.465 Q2173.85 211.474 2178.62 211.474 Q2180.98 211.474 2183.07 211.821 Q2185.15 212.168 2186.91 212.863 Z" fill="#000000" fill-rule="nonzero" fill-opacity="1"></path><path clip-path="url(#clip560)" d="M2195.08 212.099 L2199.34 212.099 L2199.34 238.025 L2195.08 238.025 L2195.08 212.099 M2195.08 202.006 L2199.34 202.006 L2199.34 207.4 L2195.08 207.4 L2195.08 202.006 Z" fill="#000000" fill-rule="nonzero" fill-opacity="1"></path><path clip-path="url(#clip560)" d="M2225.31 216.034 L2225.31 202.006 L2229.57 202.006 L2229.57 238.025 L2225.31 238.025 L2225.31 234.136 Q2223.97 236.451 2221.91 237.585 Q2219.87 238.696 2217 238.696 Q2212.3 238.696 2209.34 234.946 Q2206.4 231.196 2206.4 225.085 Q2206.4 218.974 2209.34 215.224 Q2212.3 211.474 2217 211.474 Q2219.87 211.474 2221.91 212.608 Q2223.97 213.719 2225.31 216.034 M2210.8 225.085 Q2210.8 229.784 2212.72 232.469 Q2214.66 235.131 2218.04 235.131 Q2221.42 235.131 2223.37 232.469 Q2225.31 229.784 2225.31 225.085 Q2225.31 220.386 2223.37 217.724 Q2221.42 215.039 2218.04 215.039 Q2214.66 215.039 2212.72 217.724 Q2210.8 220.386 2210.8 225.085 Z" fill="#000000" fill-rule="nonzero" fill-opacity="1"></path><path clip-path="url(#clip560)" d="M2260.52 223.997 L2260.52 226.08 L2240.94 226.08 Q2241.21 230.478 2243.57 232.793 Q2245.96 235.085 2250.2 235.085 Q2252.65 235.085 2254.94 234.483 Q2257.26 233.881 2259.52 232.677 L2259.52 236.705 Q2257.23 237.677 2254.82 238.187 Q2252.42 238.696 2249.94 238.696 Q2243.74 238.696 2240.1 235.085 Q2236.49 231.474 2236.49 225.316 Q2236.49 218.951 2239.92 215.224 Q2243.37 211.474 2249.2 211.474 Q2254.43 211.474 2257.46 214.853 Q2260.52 218.21 2260.52 223.997 M2256.26 222.747 Q2256.21 219.252 2254.29 217.168 Q2252.39 215.085 2249.25 215.085 Q2245.68 215.085 2243.53 217.099 Q2241.4 219.113 2241.07 222.77 L2256.26 222.747 Z" fill="#000000" fill-rule="nonzero" fill-opacity="1"></path><polyline clip-path="url(#clip560)" style="stroke:#e26f46; stroke-linecap:round; stroke-linejoin:round; stroke-width:4; stroke-opacity:1; fill:none" points="1958.37,272.585 2096.72,272.585 "></polyline>
<path clip-path="url(#clip560)" d="M2119.78 255.305 L2124.8 255.305 L2134.39 269.518 L2143.9 255.305 L2148.92 255.305 L2136.7 273.406 L2136.7 289.865 L2132 289.865 L2132 273.406 L2119.78 255.305 Z" fill="#000000" fill-rule="nonzero" fill-opacity="1"></path><path clip-path="url(#clip560)" d="M2184.89 264.703 L2184.89 268.731 Q2183.09 267.805 2181.14 267.342 Q2179.2 266.879 2177.12 266.879 Q2173.95 266.879 2172.35 267.851 Q2170.77 268.823 2170.77 270.768 Q2170.77 272.249 2171.91 273.105 Q2173.04 273.939 2176.47 274.703 L2177.93 275.027 Q2182.46 275.999 2184.36 277.781 Q2186.28 279.541 2186.28 282.712 Q2186.28 286.323 2183.41 288.429 Q2180.57 290.536 2175.57 290.536 Q2173.48 290.536 2171.21 290.119 Q2168.97 289.726 2166.47 288.916 L2166.47 284.517 Q2168.83 285.744 2171.12 286.369 Q2173.41 286.971 2175.66 286.971 Q2178.67 286.971 2180.29 285.953 Q2181.91 284.911 2181.91 283.036 Q2181.91 281.3 2180.73 280.374 Q2179.57 279.448 2175.61 278.592 L2174.13 278.244 Q2170.17 277.411 2168.41 275.698 Q2166.65 273.962 2166.65 270.953 Q2166.65 267.295 2169.25 265.305 Q2171.84 263.314 2176.61 263.314 Q2178.97 263.314 2181.05 263.661 Q2183.14 264.008 2184.89 264.703 Z" fill="#000000" fill-rule="nonzero" fill-opacity="1"></path><path clip-path="url(#clip560)" d="M2193.07 263.939 L2197.33 263.939 L2197.33 289.865 L2193.07 289.865 L2193.07 263.939 M2193.07 253.846 L2197.33 253.846 L2197.33 259.24 L2193.07 259.24 L2193.07 253.846 Z" fill="#000000" fill-rule="nonzero" fill-opacity="1"></path><path clip-path="url(#clip560)" d="M2223.3 267.874 L2223.3 253.846 L2227.56 253.846 L2227.56 289.865 L2223.3 289.865 L2223.3 285.976 Q2221.95 288.291 2219.89 289.425 Q2217.86 290.536 2214.99 290.536 Q2210.29 290.536 2207.33 286.786 Q2204.39 283.036 2204.39 276.925 Q2204.39 270.814 2207.33 267.064 Q2210.29 263.314 2214.99 263.314 Q2217.86 263.314 2219.89 264.448 Q2221.95 265.559 2223.3 267.874 M2208.78 276.925 Q2208.78 281.624 2210.7 284.309 Q2212.65 286.971 2216.03 286.971 Q2219.41 286.971 2221.35 284.309 Q2223.3 281.624 2223.3 276.925 Q2223.3 272.226 2221.35 269.564 Q2219.41 266.879 2216.03 266.879 Q2212.65 266.879 2210.7 269.564 Q2208.78 272.226 2208.78 276.925 Z" fill="#000000" fill-rule="nonzero" fill-opacity="1"></path><path clip-path="url(#clip560)" d="M2258.51 275.837 L2258.51 277.92 L2238.92 277.92 Q2239.2 282.318 2241.56 284.633 Q2243.95 286.925 2248.18 286.925 Q2250.64 286.925 2252.93 286.323 Q2255.24 285.721 2257.51 284.517 L2257.51 288.545 Q2255.22 289.517 2252.81 290.027 Q2250.4 290.536 2247.93 290.536 Q2241.72 290.536 2238.09 286.925 Q2234.48 283.314 2234.48 277.156 Q2234.48 270.791 2237.9 267.064 Q2241.35 263.314 2247.19 263.314 Q2252.42 263.314 2255.45 266.693 Q2258.51 270.05 2258.51 275.837 M2254.25 274.587 Q2254.2 271.092 2252.28 269.008 Q2250.38 266.925 2247.23 266.925 Q2243.67 266.925 2241.51 268.939 Q2239.39 270.953 2239.06 274.61 L2254.25 274.587 Z" fill="#000000" fill-rule="nonzero" fill-opacity="1"></path></svg>