<svg xmlns="http://www.w3.org/2000/svg" xmlns:xlink="http://www.w3.org/1999/xlink" width="600" height="400" viewBox="0 0 2400 1600">
<defs>
  <clipPath id="clip760">
    <rect x="0" y="0" width="2400" height="1600"></rect>
  </clipPath>
</defs>
<path clip-path="url(#clip760)" d="M0 1600 L2400 1600 L2400 0 L0 0  Z" fill="#ffffff" fill-rule="evenodd" fill-opacity="1"></path>
<defs>
  <clipPath id="clip761">
    <rect x="480" y="0" width="1681" height="1600"></rect>
  </clipPath>
</defs>
<path clip-path="url(#clip760)" d="M306.435 1486.45 L2352.76 1486.45 L2352.76 123.472 L306.435 123.472  Z" fill="#ffffff" fill-rule="evenodd" fill-opacity="1"></path>
<defs>
  <clipPath id="clip762">
    <rect x="306" y="123" width="2047" height="1364"></rect>
  </clipPath>
</defs>
<polyline clip-path="url(#clip762)" style="stroke:#000000; stroke-linecap:round; stroke-linejoin:round; stroke-width:2; stroke-opacity:0.1; fill:none" points="306.435,1486.45 306.435,123.472 "></polyline>
<polyline clip-path="url(#clip762)" style="stroke:#000000; stroke-linecap:round; stroke-linejoin:round; stroke-width:2; stroke-opacity:0.1; fill:none" points="715.699,1486.45 715.699,123.472 "></polyline>
<polyline clip-path="url(#clip762)" style="stroke:#000000; stroke-linecap:round; stroke-linejoin:round; stroke-width:2; stroke-opacity:0.1; fill:none" points="1124.96,1486.45 1124.96,123.472 "></polyline>
<polyline clip-path="url(#clip762)" style="stroke:#000000; stroke-linecap:round; stroke-linejoin:round; stroke-width:2; stroke-opacity:0.1; fill:none" points="1534.23,1486.45 1534.23,123.472 "></polyline>
<polyline clip-path="url(#clip762)" style="stroke:#000000; stroke-linecap:round; stroke-linejoin:round; stroke-width:2; stroke-opacity:0.1; fill:none" points="1943.49,1486.45 1943.49,123.472 "></polyline>
<polyline clip-path="url(#clip762)" style="stroke:#000000; stroke-linecap:round; stroke-linejoin:round; stroke-width:2; stroke-opacity:0.1; fill:none" points="2352.76,1486.45 2352.76,123.472 "></polyline>
<polyline clip-path="url(#clip760)" style="stroke:#000000; stroke-linecap:round; stroke-linejoin:round; stroke-width:4; stroke-opacity:1; fill:none" points="306.435,1486.45 2352.76,1486.45 "></polyline>
<polyline clip-path="url(#clip760)" style="stroke:#000000; stroke-linecap:round; stroke-linejoin:round; stroke-width:4; stroke-opacity:1; fill:none" points="306.435,1486.45 306.435,1467.55 "></polyline>
<polyline clip-path="url(#clip760)" style="stroke:#000000; stroke-linecap:round; stroke-linejoin:round; stroke-width:4; stroke-opacity:1; fill:none" points="715.699,1486.45 715.699,1467.55 "></polyline>
<polyline clip-path="url(#clip760)" style="stroke:#000000; stroke-linecap:round; stroke-linejoin:round; stroke-width:4; stroke-opacity:1; fill:none" points="1124.96,1486.45 1124.96,1467.55 "></polyline>
<polyline clip-path="url(#clip760)" style="stroke:#000000; stroke-linecap:round; stroke-linejoin:round; stroke-width:4; stroke-opacity:1; fill:none" points="1534.23,1486.45 1534.23,1467.55 "></polyline>
<polyline clip-path="url(#clip760)" style="stroke:#000000; stroke-linecap:round; stroke-linejoin:round; stroke-width:4; stroke-opacity:1; fill:none" points="1943.49,1486.45 1943.49,1467.55 "></polyline>
<polyline clip-path="url(#clip760)" style="stroke:#000000; stroke-linecap:round; stroke-linejoin:round; stroke-width:4; stroke-opacity:1; fill:none" points="2352.76,1486.45 2352.76,1467.55 "></polyline>
<path clip-path="url(#clip760)" d="M223.496 1517.37 Q219.885 1517.37 218.056 1520.93 Q216.251 1524.47 216.251 1531.6 Q216.251 1538.71 218.056 1542.27 Q219.885 1545.82 223.496 1545.82 Q227.13 1545.82 228.936 1542.27 Q230.765 1538.71 230.765 1531.6 Q230.765 1524.47 228.936 1520.93 Q227.13 1517.37 223.496 1517.37 M223.496 1513.66 Q229.306 1513.66 232.362 1518.27 Q235.44 1522.85 235.44 1531.6 Q235.44 1540.33 232.362 1544.94 Q229.306 1549.52 223.496 1549.52 Q217.686 1549.52 214.607 1544.94 Q211.552 1540.33 211.552 1531.6 Q211.552 1522.85 214.607 1518.27 Q217.686 1513.66 223.496 1513.66 Z" fill="#000000" fill-rule="nonzero" fill-opacity="1"></path><path clip-path="url(#clip760)" d="M243.658 1542.97 L248.542 1542.97 L248.542 1548.85 L243.658 1548.85 L243.658 1542.97 Z" fill="#000000" fill-rule="nonzero" fill-opacity="1"></path><path clip-path="url(#clip760)" d="M268.727 1517.37 Q265.116 1517.37 263.287 1520.93 Q261.482 1524.47 261.482 1531.6 Q261.482 1538.71 263.287 1542.27 Q265.116 1545.82 268.727 1545.82 Q272.362 1545.82 274.167 1542.27 Q275.996 1538.71 275.996 1531.6 Q275.996 1524.47 274.167 1520.93 Q272.362 1517.37 268.727 1517.37 M268.727 1513.66 Q274.537 1513.66 277.593 1518.27 Q280.672 1522.85 280.672 1531.6 Q280.672 1540.33 277.593 1544.94 Q274.537 1549.52 268.727 1549.52 Q262.917 1549.52 259.838 1544.94 Q256.783 1540.33 256.783 1531.6 Q256.783 1522.85 259.838 1518.27 Q262.917 1513.66 268.727 1513.66 Z" fill="#000000" fill-rule="nonzero" fill-opacity="1"></path><path clip-path="url(#clip760)" d="M298.889 1517.37 Q295.278 1517.37 293.449 1520.93 Q291.644 1524.47 291.644 1531.6 Q291.644 1538.71 293.449 1542.27 Q295.278 1545.82 298.889 1545.82 Q302.523 1545.82 304.329 1542.27 Q306.158 1538.71 306.158 1531.6 Q306.158 1524.47 304.329 1520.93 Q302.523 1517.37 298.889 1517.37 M298.889 1513.66 Q304.699 1513.66 307.755 1518.27 Q310.834 1522.85 310.834 1531.6 Q310.834 1540.33 307.755 1544.94 Q304.699 1549.52 298.889 1549.52 Q293.079 1549.52 290 1544.94 Q286.945 1540.33 286.945 1531.6 Q286.945 1522.85 290 1518.27 Q293.079 1513.66 298.889 1513.66 Z" fill="#000000" fill-rule="nonzero" fill-opacity="1"></path><path clip-path="url(#clip760)" d="M329.051 1517.37 Q325.44 1517.37 323.611 1520.93 Q321.806 1524.47 321.806 1531.6 Q321.806 1538.71 323.611 1542.27 Q325.44 1545.82 329.051 1545.82 Q332.685 1545.82 334.491 1542.27 Q336.319 1538.71 336.319 1531.6 Q336.319 1524.47 334.491 1520.93 Q332.685 1517.37 329.051 1517.37 M329.051 1513.66 Q334.861 1513.66 337.917 1518.27 Q340.995 1522.85 340.995 1531.6 Q340.995 1540.33 337.917 1544.94 Q334.861 1549.52 329.051 1549.52 Q323.241 1549.52 320.162 1544.94 Q317.107 1540.33 317.107 1531.6 Q317.107 1522.85 320.162 1518.27 Q323.241 1513.66 329.051 1513.66 Z" fill="#000000" fill-rule="nonzero" fill-opacity="1"></path><path clip-path="url(#clip760)" d="M359.213 1517.37 Q355.602 1517.37 353.773 1520.93 Q351.968 1524.47 351.968 1531.6 Q351.968 1538.71 353.773 1542.27 Q355.602 1545.82 359.213 1545.82 Q362.847 1545.82 364.653 1542.27 Q366.481 1538.71 366.481 1531.6 Q366.481 1524.47 364.653 1520.93 Q362.847 1517.37 359.213 1517.37 M359.213 1513.66 Q365.023 1513.66 368.079 1518.27 Q371.157 1522.85 371.157 1531.6 Q371.157 1540.33 368.079 1544.94 Q365.023 1549.52 359.213 1549.52 Q353.403 1549.52 350.324 1544.94 Q347.269 1540.33 347.269 1531.6 Q347.269 1522.85 350.324 1518.27 Q353.403 1513.66 359.213 1513.66 Z" fill="#000000" fill-rule="nonzero" fill-opacity="1"></path><path clip-path="url(#clip760)" d="M389.375 1517.37 Q385.764 1517.37 383.935 1520.93 Q382.129 1524.47 382.129 1531.6 Q382.129 1538.71 383.935 1542.27 Q385.764 1545.82 389.375 1545.82 Q393.009 1545.82 394.815 1542.27 Q396.643 1538.71 396.643 1531.6 Q396.643 1524.47 394.815 1520.93 Q393.009 1517.37 389.375 1517.37 M389.375 1513.66 Q395.185 1513.66 398.24 1518.27 Q401.319 1522.85 401.319 1531.6 Q401.319 1540.33 398.24 1544.94 Q395.185 1549.52 389.375 1549.52 Q383.565 1549.52 380.486 1544.94 Q377.43 1540.33 377.43 1531.6 Q377.43 1522.85 380.486 1518.27 Q383.565 1513.66 389.375 1513.66 Z" fill="#000000" fill-rule="nonzero" fill-opacity="1"></path><path clip-path="url(#clip760)" d="M633.559 1517.37 Q629.948 1517.37 628.119 1520.93 Q626.313 1524.47 626.313 1531.6 Q626.313 1538.71 628.119 1542.27 Q629.948 1545.82 633.559 1545.82 Q637.193 1545.82 638.999 1542.27 Q640.827 1538.71 640.827 1531.6 Q640.827 1524.47 638.999 1520.93 Q637.193 1517.37 633.559 1517.37 M633.559 1513.66 Q639.369 1513.66 642.424 1518.27 Q645.503 1522.85 645.503 1531.6 Q645.503 1540.33 642.424 1544.94 Q639.369 1549.52 633.559 1549.52 Q627.749 1549.52 624.67 1544.94 Q621.614 1540.33 621.614 1531.6 Q621.614 1522.85 624.67 1518.27 Q627.749 1513.66 633.559 1513.66 Z" fill="#000000" fill-rule="nonzero" fill-opacity="1"></path><path clip-path="url(#clip760)" d="M653.721 1542.97 L658.605 1542.97 L658.605 1548.85 L653.721 1548.85 L653.721 1542.97 Z" fill="#000000" fill-rule="nonzero" fill-opacity="1"></path><path clip-path="url(#clip760)" d="M678.79 1517.37 Q675.179 1517.37 673.35 1520.93 Q671.545 1524.47 671.545 1531.6 Q671.545 1538.71 673.35 1542.27 Q675.179 1545.82 678.79 1545.82 Q682.424 1545.82 684.23 1542.27 Q686.058 1538.71 686.058 1531.6 Q686.058 1524.47 684.23 1520.93 Q682.424 1517.37 678.79 1517.37 M678.79 1513.66 Q684.6 1513.66 687.656 1518.27 Q690.734 1522.85 690.734 1531.6 Q690.734 1540.33 687.656 1544.94 Q684.6 1549.52 678.79 1549.52 Q672.98 1549.52 669.901 1544.94 Q666.846 1540.33 666.846 1531.6 Q666.846 1522.85 669.901 1518.27 Q672.98 1513.66 678.79 1513.66 Z" fill="#000000" fill-rule="nonzero" fill-opacity="1"></path><path clip-path="url(#clip760)" d="M708.952 1517.37 Q705.341 1517.37 703.512 1520.93 Q701.707 1524.47 701.707 1531.6 Q701.707 1538.71 703.512 1542.27 Q705.341 1545.82 708.952 1545.82 Q712.586 1545.82 714.392 1542.27 Q716.22 1538.71 716.22 1531.6 Q716.22 1524.47 714.392 1520.93 Q712.586 1517.37 708.952 1517.37 M708.952 1513.66 Q714.762 1513.66 717.818 1518.27 Q720.896 1522.85 720.896 1531.6 Q720.896 1540.33 717.818 1544.94 Q714.762 1549.52 708.952 1549.52 Q703.142 1549.52 700.063 1544.94 Q697.007 1540.33 697.007 1531.6 Q697.007 1522.85 700.063 1518.27 Q703.142 1513.66 708.952 1513.66 Z" fill="#000000" fill-rule="nonzero" fill-opacity="1"></path><path clip-path="url(#clip760)" d="M739.114 1517.37 Q735.503 1517.37 733.674 1520.93 Q731.868 1524.47 731.868 1531.6 Q731.868 1538.71 733.674 1542.27 Q735.503 1545.82 739.114 1545.82 Q742.748 1545.82 744.554 1542.27 Q746.382 1538.71 746.382 1531.6 Q746.382 1524.47 744.554 1520.93 Q742.748 1517.37 739.114 1517.37 M739.114 1513.66 Q744.924 1513.66 747.979 1518.27 Q751.058 1522.85 751.058 1531.6 Q751.058 1540.33 747.979 1544.94 Q744.924 1549.52 739.114 1549.52 Q733.304 1549.52 730.225 1544.94 Q727.169 1540.33 727.169 1531.6 Q727.169 1522.85 730.225 1518.27 Q733.304 1513.66 739.114 1513.66 Z" fill="#000000" fill-rule="nonzero" fill-opacity="1"></path><path clip-path="url(#clip760)" d="M769.276 1517.37 Q765.665 1517.37 763.836 1520.93 Q762.03 1524.47 762.03 1531.6 Q762.03 1538.71 763.836 1542.27 Q765.665 1545.82 769.276 1545.82 Q772.91 1545.82 774.715 1542.27 Q776.544 1538.71 776.544 1531.6 Q776.544 1524.47 774.715 1520.93 Q772.91 1517.37 769.276 1517.37 M769.276 1513.66 Q775.086 1513.66 778.141 1518.27 Q781.22 1522.85 781.22 1531.6 Q781.22 1540.33 778.141 1544.94 Q775.086 1549.52 769.276 1549.52 Q763.465 1549.52 760.387 1544.94 Q757.331 1540.33 757.331 1531.6 Q757.331 1522.85 760.387 1518.27 Q763.465 1513.66 769.276 1513.66 Z" fill="#000000" fill-rule="nonzero" fill-opacity="1"></path><path clip-path="url(#clip760)" d="M793.465 1544.91 L809.785 1544.91 L809.785 1548.85 L787.84 1548.85 L787.84 1544.91 Q790.502 1542.16 795.086 1537.53 Q799.692 1532.88 800.873 1531.53 Q803.118 1529.01 803.998 1527.27 Q804.9 1525.51 804.9 1523.82 Q804.9 1521.07 802.956 1519.33 Q801.035 1517.6 797.933 1517.6 Q795.734 1517.6 793.28 1518.36 Q790.85 1519.13 788.072 1520.68 L788.072 1515.95 Q790.896 1514.82 793.35 1514.24 Q795.803 1513.66 797.84 1513.66 Q803.211 1513.66 806.405 1516.35 Q809.599 1519.03 809.599 1523.52 Q809.599 1525.65 808.789 1527.57 Q808.002 1529.47 805.896 1532.07 Q805.317 1532.74 802.215 1535.95 Q799.113 1539.15 793.465 1544.91 Z" fill="#000000" fill-rule="nonzero" fill-opacity="1"></path><path clip-path="url(#clip760)" d="M1041.78 1517.37 Q1038.17 1517.37 1036.34 1520.93 Q1034.54 1524.47 1034.54 1531.6 Q1034.54 1538.71 1036.34 1542.27 Q1038.17 1545.82 1041.78 1545.82 Q1045.42 1545.82 1047.22 1542.27 Q1049.05 1538.71 1049.05 1531.6 Q1049.05 1524.47 1047.22 1520.93 Q1045.42 1517.37 1041.78 1517.37 M1041.78 1513.66 Q1047.59 1513.66 1050.65 1518.27 Q1053.73 1522.85 1053.73 1531.6 Q1053.73 1540.33 1050.65 1544.94 Q1047.59 1549.52 1041.78 1549.52 Q1035.97 1549.52 1032.89 1544.94 Q1029.84 1540.33 1029.84 1531.6 Q1029.84 1522.85 1032.89 1518.27 Q1035.97 1513.66 1041.78 1513.66 Z" fill="#000000" fill-rule="nonzero" fill-opacity="1"></path><path clip-path="url(#clip760)" d="M1061.94 1542.97 L1066.83 1542.97 L1066.83 1548.85 L1061.94 1548.85 L1061.94 1542.97 Z" fill="#000000" fill-rule="nonzero" fill-opacity="1"></path><path clip-path="url(#clip760)" d="M1087.01 1517.37 Q1083.4 1517.37 1081.57 1520.93 Q1079.77 1524.47 1079.77 1531.6 Q1079.77 1538.71 1081.57 1542.27 Q1083.4 1545.82 1087.01 1545.82 Q1090.65 1545.82 1092.45 1542.27 Q1094.28 1538.71 1094.28 1531.6 Q1094.28 1524.47 1092.45 1520.93 Q1090.65 1517.37 1087.01 1517.37 M1087.01 1513.66 Q1092.82 1513.66 1095.88 1518.27 Q1098.96 1522.85 1098.96 1531.6 Q1098.96 1540.33 1095.88 1544.94 Q1092.82 1549.52 1087.01 1549.52 Q1081.2 1549.52 1078.12 1544.94 Q1075.07 1540.33 1075.07 1531.6 Q1075.07 1522.85 1078.12 1518.27 Q1081.2 1513.66 1087.01 1513.66 Z" fill="#000000" fill-rule="nonzero" fill-opacity="1"></path><path clip-path="url(#clip760)" d="M1117.17 1517.37 Q1113.56 1517.37 1111.73 1520.93 Q1109.93 1524.47 1109.93 1531.6 Q1109.93 1538.71 1111.73 1542.27 Q1113.56 1545.82 1117.17 1545.82 Q1120.81 1545.82 1122.61 1542.27 Q1124.44 1538.71 1124.44 1531.6 Q1124.44 1524.47 1122.61 1520.93 Q1120.81 1517.37 1117.17 1517.37 M1117.17 1513.66 Q1122.98 1513.66 1126.04 1518.27 Q1129.12 1522.85 1129.12 1531.6 Q1129.12 1540.33 1126.04 1544.94 Q1122.98 1549.52 1117.17 1549.52 Q1111.36 1549.52 1108.29 1544.94 Q1105.23 1540.33 1105.23 1531.6 Q1105.23 1522.85 1108.29 1518.27 Q1111.36 1513.66 1117.17 1513.66 Z" fill="#000000" fill-rule="nonzero" fill-opacity="1"></path><path clip-path="url(#clip760)" d="M1147.34 1517.37 Q1143.73 1517.37 1141.9 1520.93 Q1140.09 1524.47 1140.09 1531.6 Q1140.09 1538.71 1141.9 1542.27 Q1143.73 1545.82 1147.34 1545.82 Q1150.97 1545.82 1152.78 1542.27 Q1154.6 1538.71 1154.6 1531.6 Q1154.6 1524.47 1152.78 1520.93 Q1150.97 1517.37 1147.34 1517.37 M1147.34 1513.66 Q1153.15 1513.66 1156.2 1518.27 Q1159.28 1522.85 1159.28 1531.6 Q1159.28 1540.33 1156.2 1544.94 Q1153.15 1549.52 1147.34 1549.52 Q1141.53 1549.52 1138.45 1544.94 Q1135.39 1540.33 1135.39 1531.6 Q1135.39 1522.85 1138.45 1518.27 Q1141.53 1513.66 1147.34 1513.66 Z" fill="#000000" fill-rule="nonzero" fill-opacity="1"></path><path clip-path="url(#clip760)" d="M1177.5 1517.37 Q1173.89 1517.37 1172.06 1520.93 Q1170.25 1524.47 1170.25 1531.6 Q1170.25 1538.71 1172.06 1542.27 Q1173.89 1545.82 1177.5 1545.82 Q1181.13 1545.82 1182.94 1542.27 Q1184.77 1538.71 1184.77 1531.6 Q1184.77 1524.47 1182.94 1520.93 Q1181.13 1517.37 1177.5 1517.37 M1177.5 1513.66 Q1183.31 1513.66 1186.36 1518.27 Q1189.44 1522.85 1189.44 1531.6 Q1189.44 1540.33 1186.36 1544.94 Q1183.31 1549.52 1177.5 1549.52 Q1171.69 1549.52 1168.61 1544.94 Q1165.55 1540.33 1165.55 1531.6 Q1165.55 1522.85 1168.61 1518.27 Q1171.69 1513.66 1177.5 1513.66 Z" fill="#000000" fill-rule="nonzero" fill-opacity="1"></path><path clip-path="url(#clip760)" d="M1210.51 1518.36 L1198.7 1536.81 L1210.51 1536.81 L1210.51 1518.36 M1209.28 1514.29 L1215.16 1514.29 L1215.16 1536.81 L1220.09 1536.81 L1220.09 1540.7 L1215.16 1540.7 L1215.16 1548.85 L1210.51 1548.85 L1210.51 1540.7 L1194.91 1540.7 L1194.91 1536.19 L1209.28 1514.29 Z" fill="#000000" fill-rule="nonzero" fill-opacity="1"></path><path clip-path="url(#clip760)" d="M1451.21 1517.37 Q1447.6 1517.37 1445.77 1520.93 Q1443.96 1524.47 1443.96 1531.6 Q1443.96 1538.71 1445.77 1542.27 Q1447.6 1545.82 1451.21 1545.82 Q1454.84 1545.82 1456.65 1542.27 Q1458.48 1538.71 1458.48 1531.6 Q1458.48 1524.47 1456.65 1520.93 Q1454.84 1517.37 1451.21 1517.37 M1451.21 1513.66 Q1457.02 1513.66 1460.07 1518.27 Q1463.15 1522.85 1463.15 1531.6 Q1463.15 1540.33 1460.07 1544.94 Q1457.02 1549.52 1451.21 1549.52 Q1445.4 1549.52 1442.32 1544.94 Q1439.26 1540.33 1439.26 1531.6 Q1439.26 1522.85 1442.32 1518.27 Q1445.4 1513.66 1451.21 1513.66 Z" fill="#000000" fill-rule="nonzero" fill-opacity="1"></path><path clip-path="url(#clip760)" d="M1471.37 1542.97 L1476.25 1542.97 L1476.25 1548.85 L1471.37 1548.85 L1471.37 1542.97 Z" fill="#000000" fill-rule="nonzero" fill-opacity="1"></path><path clip-path="url(#clip760)" d="M1496.44 1517.37 Q1492.83 1517.37 1491 1520.93 Q1489.19 1524.47 1489.19 1531.6 Q1489.19 1538.71 1491 1542.27 Q1492.83 1545.82 1496.44 1545.82 Q1500.07 1545.82 1501.88 1542.27 Q1503.71 1538.71 1503.71 1531.6 Q1503.71 1524.47 1501.88 1520.93 Q1500.07 1517.37 1496.44 1517.37 M1496.44 1513.66 Q1502.25 1513.66 1505.3 1518.27 Q1508.38 1522.85 1508.38 1531.6 Q1508.38 1540.33 1505.3 1544.94 Q1502.25 1549.52 1496.44 1549.52 Q1490.63 1549.52 1487.55 1544.94 Q1484.49 1540.33 1484.49 1531.6 Q1484.49 1522.85 1487.55 1518.27 Q1490.63 1513.66 1496.44 1513.66 Z" fill="#000000" fill-rule="nonzero" fill-opacity="1"></path><path clip-path="url(#clip760)" d="M1526.6 1517.37 Q1522.99 1517.37 1521.16 1520.93 Q1519.36 1524.47 1519.36 1531.6 Q1519.36 1538.71 1521.16 1542.27 Q1522.99 1545.82 1526.6 1545.82 Q1530.23 1545.82 1532.04 1542.27 Q1533.87 1538.71 1533.87 1531.6 Q1533.87 1524.47 1532.04 1520.93 Q1530.23 1517.37 1526.6 1517.37 M1526.6 1513.66 Q1532.41 1513.66 1535.47 1518.27 Q1538.54 1522.85 1538.54 1531.6 Q1538.54 1540.33 1535.47 1544.94 Q1532.41 1549.52 1526.6 1549.52 Q1520.79 1549.52 1517.71 1544.94 Q1514.66 1540.33 1514.66 1531.6 Q1514.66 1522.85 1517.71 1518.27 Q1520.79 1513.66 1526.6 1513.66 Z" fill="#000000" fill-rule="nonzero" fill-opacity="1"></path><path clip-path="url(#clip760)" d="M1556.76 1517.37 Q1553.15 1517.37 1551.32 1520.93 Q1549.52 1524.47 1549.52 1531.6 Q1549.52 1538.71 1551.32 1542.27 Q1553.15 1545.82 1556.76 1545.82 Q1560.4 1545.82 1562.2 1542.27 Q1564.03 1538.71 1564.03 1531.6 Q1564.03 1524.47 1562.2 1520.93 Q1560.4 1517.37 1556.76 1517.37 M1556.76 1513.66 Q1562.57 1513.66 1565.63 1518.27 Q1568.71 1522.85 1568.71 1531.6 Q1568.71 1540.33 1565.63 1544.94 Q1562.57 1549.52 1556.76 1549.52 Q1550.95 1549.52 1547.87 1544.94 Q1544.82 1540.33 1544.82 1531.6 Q1544.82 1522.85 1547.87 1518.27 Q1550.95 1513.66 1556.76 1513.66 Z" fill="#000000" fill-rule="nonzero" fill-opacity="1"></path><path clip-path="url(#clip760)" d="M1586.92 1517.37 Q1583.31 1517.37 1581.48 1520.93 Q1579.68 1524.47 1579.68 1531.6 Q1579.68 1538.71 1581.48 1542.27 Q1583.31 1545.82 1586.92 1545.82 Q1590.56 1545.82 1592.36 1542.27 Q1594.19 1538.71 1594.19 1531.6 Q1594.19 1524.47 1592.36 1520.93 Q1590.56 1517.37 1586.92 1517.37 M1586.92 1513.66 Q1592.73 1513.66 1595.79 1518.27 Q1598.87 1522.85 1598.87 1531.6 Q1598.87 1540.33 1595.79 1544.94 Q1592.73 1549.52 1586.92 1549.52 Q1581.11 1549.52 1578.04 1544.94 Q1574.98 1540.33 1574.98 1531.6 Q1574.98 1522.85 1578.04 1518.27 Q1581.11 1513.66 1586.92 1513.66 Z" fill="#000000" fill-rule="nonzero" fill-opacity="1"></path><path clip-path="url(#clip760)" d="M1617.66 1529.7 Q1614.52 1529.7 1612.66 1531.86 Q1610.84 1534.01 1610.84 1537.76 Q1610.84 1541.49 1612.66 1543.66 Q1614.52 1545.82 1617.66 1545.82 Q1620.81 1545.82 1622.64 1543.66 Q1624.49 1541.49 1624.49 1537.76 Q1624.49 1534.01 1622.64 1531.86 Q1620.81 1529.7 1617.66 1529.7 M1626.95 1515.05 L1626.95 1519.31 Q1625.19 1518.48 1623.38 1518.04 Q1621.6 1517.6 1619.84 1517.6 Q1615.21 1517.6 1612.76 1520.72 Q1610.33 1523.85 1609.98 1530.17 Q1611.35 1528.15 1613.41 1527.09 Q1615.47 1526 1617.94 1526 Q1623.15 1526 1626.16 1529.17 Q1629.19 1532.32 1629.19 1537.76 Q1629.19 1543.08 1626.04 1546.3 Q1622.9 1549.52 1617.66 1549.52 Q1611.67 1549.52 1608.5 1544.94 Q1605.33 1540.33 1605.33 1531.6 Q1605.33 1523.41 1609.22 1518.55 Q1613.1 1513.66 1619.66 1513.66 Q1621.41 1513.66 1623.2 1514.01 Q1625 1514.36 1626.95 1515.05 Z" fill="#000000" fill-rule="nonzero" fill-opacity="1"></path><path clip-path="url(#clip760)" d="M1860.6 1517.37 Q1856.99 1517.37 1855.16 1520.93 Q1853.35 1524.47 1853.35 1531.6 Q1853.35 1538.71 1855.16 1542.27 Q1856.99 1545.82 1860.6 1545.82 Q1864.23 1545.82 1866.04 1542.27 Q1867.87 1538.71 1867.87 1531.6 Q1867.87 1524.47 1866.04 1520.93 Q1864.23 1517.37 1860.6 1517.37 M1860.6 1513.66 Q1866.41 1513.66 1869.46 1518.27 Q1872.54 1522.85 1872.54 1531.6 Q1872.54 1540.33 1869.46 1544.94 Q1866.41 1549.52 1860.6 1549.52 Q1854.79 1549.52 1851.71 1544.94 Q1848.65 1540.33 1848.65 1531.6 Q1848.65 1522.85 1851.71 1518.27 Q1854.79 1513.66 1860.6 1513.66 Z" fill="#000000" fill-rule="nonzero" fill-opacity="1"></path><path clip-path="url(#clip760)" d="M1880.76 1542.97 L1885.64 1542.97 L1885.64 1548.85 L1880.76 1548.85 L1880.76 1542.97 Z" fill="#000000" fill-rule="nonzero" fill-opacity="1"></path><path clip-path="url(#clip760)" d="M1905.83 1517.37 Q1902.22 1517.37 1900.39 1520.93 Q1898.58 1524.47 1898.58 1531.6 Q1898.58 1538.71 1900.39 1542.27 Q1902.22 1545.82 1905.83 1545.82 Q1909.46 1545.82 1911.27 1542.27 Q1913.1 1538.71 1913.1 1531.6 Q1913.1 1524.47 1911.27 1520.93 Q1909.46 1517.37 1905.83 1517.37 M1905.83 1513.66 Q1911.64 1513.66 1914.7 1518.27 Q1917.77 1522.85 1917.77 1531.6 Q1917.77 1540.33 1914.7 1544.94 Q1911.64 1549.52 1905.83 1549.52 Q1900.02 1549.52 1896.94 1544.94 Q1893.89 1540.33 1893.89 1531.6 Q1893.89 1522.85 1896.94 1518.27 Q1900.02 1513.66 1905.83 1513.66 Z" fill="#000000" fill-rule="nonzero" fill-opacity="1"></path><path clip-path="url(#clip760)" d="M1935.99 1517.37 Q1932.38 1517.37 1930.55 1520.93 Q1928.75 1524.47 1928.75 1531.6 Q1928.75 1538.71 1930.55 1542.27 Q1932.38 1545.82 1935.99 1545.82 Q1939.63 1545.82 1941.43 1542.27 Q1943.26 1538.71 1943.26 1531.6 Q1943.26 1524.47 1941.43 1520.93 Q1939.63 1517.37 1935.99 1517.37 M1935.99 1513.66 Q1941.8 1513.66 1944.86 1518.27 Q1947.94 1522.85 1947.94 1531.6 Q1947.94 1540.33 1944.86 1544.94 Q1941.8 1549.52 1935.99 1549.52 Q1930.18 1549.52 1927.1 1544.94 Q1924.05 1540.33 1924.05 1531.6 Q1924.05 1522.85 1927.1 1518.27 Q1930.18 1513.66 1935.99 1513.66 Z" fill="#000000" fill-rule="nonzero" fill-opacity="1"></path><path clip-path="url(#clip760)" d="M1966.15 1517.37 Q1962.54 1517.37 1960.71 1520.93 Q1958.91 1524.47 1958.91 1531.6 Q1958.91 1538.71 1960.71 1542.27 Q1962.54 1545.82 1966.15 1545.82 Q1969.79 1545.82 1971.59 1542.27 Q1973.42 1538.71 1973.42 1531.6 Q1973.42 1524.47 1971.59 1520.93 Q1969.79 1517.37 1966.15 1517.37 M1966.15 1513.66 Q1971.96 1513.66 1975.02 1518.27 Q1978.1 1522.85 1978.1 1531.6 Q1978.1 1540.33 1975.02 1544.94 Q1971.96 1549.52 1966.15 1549.52 Q1960.34 1549.52 1957.26 1544.94 Q1954.21 1540.33 1954.21 1531.6 Q1954.21 1522.85 1957.26 1518.27 Q1960.34 1513.66 1966.15 1513.66 Z" fill="#000000" fill-rule="nonzero" fill-opacity="1"></path><path clip-path="url(#clip760)" d="M1996.32 1517.37 Q1992.7 1517.37 1990.88 1520.93 Q1989.07 1524.47 1989.07 1531.6 Q1989.07 1538.71 1990.88 1542.27 Q1992.7 1545.82 1996.32 1545.82 Q1999.95 1545.82 2001.76 1542.27 Q2003.58 1538.71 2003.58 1531.6 Q2003.58 1524.47 2001.76 1520.93 Q1999.95 1517.37 1996.32 1517.37 M1996.32 1513.66 Q2002.13 1513.66 2005.18 1518.27 Q2008.26 1522.85 2008.26 1531.6 Q2008.26 1540.33 2005.18 1544.94 Q2002.13 1549.52 1996.32 1549.52 Q1990.51 1549.52 1987.43 1544.94 Q1984.37 1540.33 1984.37 1531.6 Q1984.37 1522.85 1987.43 1518.27 Q1990.51 1513.66 1996.32 1513.66 Z" fill="#000000" fill-rule="nonzero" fill-opacity="1"></path><path clip-path="url(#clip760)" d="M2026.48 1532.44 Q2023.14 1532.44 2021.22 1534.22 Q2019.32 1536 2019.32 1539.13 Q2019.32 1542.25 2021.22 1544.03 Q2023.14 1545.82 2026.48 1545.82 Q2029.81 1545.82 2031.73 1544.03 Q2033.65 1542.23 2033.65 1539.13 Q2033.65 1536 2031.73 1534.22 Q2029.83 1532.44 2026.48 1532.44 M2021.8 1530.45 Q2018.79 1529.7 2017.1 1527.64 Q2015.44 1525.58 2015.44 1522.62 Q2015.44 1518.48 2018.38 1516.07 Q2021.34 1513.66 2026.48 1513.66 Q2031.64 1513.66 2034.58 1516.07 Q2037.52 1518.48 2037.52 1522.62 Q2037.52 1525.58 2035.83 1527.64 Q2034.16 1529.7 2031.18 1530.45 Q2034.56 1531.23 2036.43 1533.52 Q2038.33 1535.82 2038.33 1539.13 Q2038.33 1544.15 2035.25 1546.83 Q2032.2 1549.52 2026.48 1549.52 Q2020.76 1549.52 2017.68 1546.83 Q2014.63 1544.15 2014.63 1539.13 Q2014.63 1535.82 2016.52 1533.52 Q2018.42 1531.23 2021.8 1530.45 M2020.09 1523.06 Q2020.09 1525.75 2021.76 1527.25 Q2023.45 1528.76 2026.48 1528.76 Q2029.49 1528.76 2031.18 1527.25 Q2032.89 1525.75 2032.89 1523.06 Q2032.89 1520.38 2031.18 1518.87 Q2029.49 1517.37 2026.48 1517.37 Q2023.45 1517.37 2021.76 1518.87 Q2020.09 1520.38 2020.09 1523.06 Z" fill="#000000" fill-rule="nonzero" fill-opacity="1"></path><path clip-path="url(#clip760)" d="M2269.82 1517.37 Q2266.21 1517.37 2264.38 1520.93 Q2262.57 1524.47 2262.57 1531.6 Q2262.57 1538.71 2264.38 1542.27 Q2266.21 1545.82 2269.82 1545.82 Q2273.45 1545.82 2275.26 1542.27 Q2277.09 1538.71 2277.09 1531.6 Q2277.09 1524.47 2275.26 1520.93 Q2273.45 1517.37 2269.82 1517.37 M2269.82 1513.66 Q2275.63 1513.66 2278.68 1518.27 Q2281.76 1522.85 2281.76 1531.6 Q2281.76 1540.33 2278.68 1544.94 Q2275.63 1549.52 2269.82 1549.52 Q2264.01 1549.52 2260.93 1544.94 Q2257.87 1540.33 2257.87 1531.6 Q2257.87 1522.85 2260.93 1518.27 Q2264.01 1513.66 2269.82 1513.66 Z" fill="#000000" fill-rule="nonzero" fill-opacity="1"></path><path clip-path="url(#clip760)" d="M2289.98 1542.97 L2294.86 1542.97 L2294.86 1548.85 L2289.98 1548.85 L2289.98 1542.97 Z" fill="#000000" fill-rule="nonzero" fill-opacity="1"></path><path clip-path="url(#clip760)" d="M2315.05 1517.37 Q2311.44 1517.37 2309.61 1520.93 Q2307.8 1524.47 2307.8 1531.6 Q2307.8 1538.71 2309.61 1542.27 Q2311.44 1545.82 2315.05 1545.82 Q2318.68 1545.82 2320.49 1542.27 Q2322.32 1538.71 2322.32 1531.6 Q2322.32 1524.47 2320.49 1520.93 Q2318.68 1517.37 2315.05 1517.37 M2315.05 1513.66 Q2320.86 1513.66 2323.91 1518.27 Q2326.99 1522.85 2326.99 1531.6 Q2326.99 1540.33 2323.91 1544.94 Q2320.86 1549.52 2315.05 1549.52 Q2309.24 1549.52 2306.16 1544.94 Q2303.1 1540.33 2303.1 1531.6 Q2303.1 1522.85 2306.16 1518.27 Q2309.24 1513.66 2315.05 1513.66 Z" fill="#000000" fill-rule="nonzero" fill-opacity="1"></path><path clip-path="url(#clip760)" d="M2345.21 1517.37 Q2341.6 1517.37 2339.77 1520.93 Q2337.96 1524.47 2337.96 1531.6 Q2337.96 1538.71 2339.77 1542.27 Q2341.6 1545.82 2345.21 1545.82 Q2348.84 1545.82 2350.65 1542.27 Q2352.48 1538.71 2352.48 1531.6 Q2352.48 1524.47 2350.65 1520.93 Q2348.84 1517.37 2345.21 1517.37 M2345.21 1513.66 Q2351.02 1513.66 2354.08 1518.27 Q2357.15 1522.85 2357.15 1531.6 Q2357.15 1540.33 2354.08 1544.94 Q2351.02 1549.52 2345.21 1549.52 Q2339.4 1549.52 2336.32 1544.94 Q2333.27 1540.33 2333.27 1531.6 Q2333.27 1522.85 2336.32 1518.27 Q2339.4 1513.66 2345.21 1513.66 Z" fill="#000000" fill-rule="nonzero" fill-opacity="1"></path><path clip-path="url(#clip760)" d="M2375.37 1517.37 Q2371.76 1517.37 2369.93 1520.93 Q2368.13 1524.47 2368.13 1531.6 Q2368.13 1538.71 2369.93 1542.27 Q2371.76 1545.82 2375.37 1545.82 Q2379.01 1545.82 2380.81 1542.27 Q2382.64 1538.71 2382.64 1531.6 Q2382.64 1524.47 2380.81 1520.93 Q2379.01 1517.37 2375.37 1517.37 M2375.37 1513.66 Q2381.18 1513.66 2384.24 1518.27 Q2387.32 1522.85 2387.32 1531.6 Q2387.32 1540.33 2384.24 1544.94 Q2381.18 1549.52 2375.37 1549.52 Q2369.56 1549.52 2366.48 1544.94 Q2363.43 1540.33 2363.43 1531.6 Q2363.43 1522.85 2366.48 1518.27 Q2369.56 1513.66 2375.37 1513.66 Z" fill="#000000" fill-rule="nonzero" fill-opacity="1"></path><path clip-path="url(#clip760)" d="M2396.34 1544.91 L2403.98 1544.91 L2403.98 1518.55 L2395.67 1520.21 L2395.67 1515.95 L2403.94 1514.29 L2408.61 1514.29 L2408.61 1544.91 L2416.25 1544.91 L2416.25 1548.85 L2396.34 1548.85 L2396.34 1544.91 Z" fill="#000000" fill-rule="nonzero" fill-opacity="1"></path><path clip-path="url(#clip760)" d="M2435.7 1517.37 Q2432.08 1517.37 2430.26 1520.93 Q2428.45 1524.47 2428.45 1531.6 Q2428.45 1538.71 2430.26 1542.27 Q2432.08 1545.82 2435.7 1545.82 Q2439.33 1545.82 2441.14 1542.27 Q2442.96 1538.71 2442.96 1531.6 Q2442.96 1524.47 2441.14 1520.93 Q2439.33 1517.37 2435.7 1517.37 M2435.7 1513.66 Q2441.51 1513.66 2444.56 1518.27 Q2447.64 1522.85 2447.64 1531.6 Q2447.64 1540.33 2444.56 1544.94 Q2441.51 1549.52 2435.7 1549.52 Q2429.89 1549.52 2426.81 1544.94 Q2423.75 1540.33 2423.75 1531.6 Q2423.75 1522.85 2426.81 1518.27 Q2429.89 1513.66 2435.7 1513.66 Z" fill="#000000" fill-rule="nonzero" fill-opacity="1"></path><polyline clip-path="url(#clip762)" style="stroke:#000000; stroke-linecap:round; stroke-linejoin:round; stroke-width:2; stroke-opacity:0.1; fill:none" points="306.435,1447.87 2352.76,1447.87 "></polyline>
<polyline clip-path="url(#clip762)" style="stroke:#000000; stroke-linecap:round; stroke-linejoin:round; stroke-width:2; stroke-opacity:0.1; fill:none" points="306.435,1168.35 2352.76,1168.35 "></polyline>
<polyline clip-path="url(#clip762)" style="stroke:#000000; stroke-linecap:round; stroke-linejoin:round; stroke-width:2; stroke-opacity:0.1; fill:none" points="306.435,888.818 2352.76,888.818 "></polyline>
<polyline clip-path="url(#clip762)" style="stroke:#000000; stroke-linecap:round; stroke-linejoin:round; stroke-width:2; stroke-opacity:0.1; fill:none" points="306.435,609.291 2352.76,609.291 "></polyline>
<polyline clip-path="url(#clip762)" style="stroke:#000000; stroke-linecap:round; stroke-linejoin:round; stroke-width:2; stroke-opacity:0.1; fill:none" points="306.435,329.763 2352.76,329.763 "></polyline>
<polyline clip-path="url(#clip760)" style="stroke:#000000; stroke-linecap:round; stroke-linejoin:round; stroke-width:4; stroke-opacity:1; fill:none" points="306.435,1486.45 306.435,123.472 "></polyline>
<polyline clip-path="url(#clip760)" style="stroke:#000000; stroke-linecap:round; stroke-linejoin:round; stroke-width:4; stroke-opacity:1; fill:none" points="306.435,1447.87 325.333,1447.87 "></polyline>
<polyline clip-path="url(#clip760)" style="stroke:#000000; stroke-linecap:round; stroke-linejoin:round; stroke-width:4; stroke-opacity:1; fill:none" points="306.435,1168.35 325.333,1168.35 "></polyline>
<polyline clip-path="url(#clip760)" style="stroke:#000000; stroke-linecap:round; stroke-linejoin:round; stroke-width:4; stroke-opacity:1; fill:none" points="306.435,888.818 325.333,888.818 "></polyline>
<polyline clip-path="url(#clip760)" style="stroke:#000000; stroke-linecap:round; stroke-linejoin:round; stroke-width:4; stroke-opacity:1; fill:none" points="306.435,609.291 325.333,609.291 "></polyline>
<polyline clip-path="url(#clip760)" style="stroke:#000000; stroke-linecap:round; stroke-linejoin:round; stroke-width:4; stroke-opacity:1; fill:none" points="306.435,329.763 325.333,329.763 "></polyline>
<path clip-path="url(#clip760)" d="M258.491 1433.67 Q254.88 1433.67 253.051 1437.24 Q251.246 1440.78 251.246 1447.91 Q251.246 1455.01 253.051 1458.58 Q254.88 1462.12 258.491 1462.12 Q262.125 1462.12 263.931 1458.58 Q265.759 1455.01 265.759 1447.91 Q265.759 1440.78 263.931 1437.24 Q262.125 1433.67 258.491 1433.67 M258.491 1429.97 Q264.301 1429.97 267.357 1434.57 Q270.435 1439.16 270.435 1447.91 Q270.435 1456.63 267.357 1461.24 Q264.301 1465.82 258.491 1465.82 Q252.681 1465.82 249.602 1461.24 Q246.547 1456.63 246.547 1447.91 Q246.547 1439.16 249.602 1434.57 Q252.681 1429.97 258.491 1429.97 Z" fill="#000000" fill-rule="nonzero" fill-opacity="1"></path><path clip-path="url(#clip760)" d="M56.6171 1188.14 L72.9365 1188.14 L72.9365 1192.07 L50.9921 1192.07 L50.9921 1188.14 Q53.6541 1185.38 58.2375 1180.75 Q62.8439 1176.1 64.0245 1174.76 Q66.2698 1172.24 67.1494 1170.5 Q68.0522 1168.74 68.0522 1167.05 Q68.0522 1164.3 66.1078 1162.56 Q64.1865 1160.82 61.0847 1160.82 Q58.8856 1160.82 56.4319 1161.59 Q54.0014 1162.35 51.2236 1163.9 L51.2236 1159.18 Q54.0477 1158.05 56.5014 1157.47 Q58.955 1156.89 60.9921 1156.89 Q66.3624 1156.89 69.5568 1159.57 Q72.7513 1162.26 72.7513 1166.75 Q72.7513 1168.88 71.9411 1170.8 Q71.1541 1172.7 69.0476 1175.29 Q68.4689 1175.96 65.367 1179.18 Q62.2652 1182.37 56.6171 1188.14 Z" fill="#000000" fill-rule="nonzero" fill-opacity="1"></path><path clip-path="url(#clip760)" d="M82.7512 1186.19 L87.6354 1186.19 L87.6354 1192.07 L82.7512 1192.07 L82.7512 1186.19 Z" fill="#000000" fill-rule="nonzero" fill-opacity="1"></path><path clip-path="url(#clip760)" d="M97.8669 1157.51 L116.223 1157.51 L116.223 1161.45 L102.149 1161.45 L102.149 1169.92 Q103.168 1169.57 104.186 1169.41 Q105.205 1169.23 106.223 1169.23 Q112.01 1169.23 115.39 1172.4 Q118.77 1175.57 118.77 1180.99 Q118.77 1186.56 115.297 1189.67 Q111.825 1192.74 105.506 1192.74 Q103.33 1192.74 101.061 1192.37 Q98.8159 1192 96.4085 1191.26 L96.4085 1186.56 Q98.4919 1187.7 100.714 1188.25 Q102.936 1188.81 105.413 1188.81 Q109.418 1188.81 111.756 1186.7 Q114.094 1184.6 114.094 1180.99 Q114.094 1177.37 111.756 1175.27 Q109.418 1173.16 105.413 1173.16 Q103.538 1173.16 101.663 1173.58 Q99.8113 1173.99 97.8669 1174.87 L97.8669 1157.51 Z" fill="#000000" fill-rule="nonzero" fill-opacity="1"></path><path clip-path="url(#clip760)" d="M137.982 1160.59 Q134.371 1160.59 132.543 1164.16 Q130.737 1167.7 130.737 1174.83 Q130.737 1181.93 132.543 1185.5 Q134.371 1189.04 137.982 1189.04 Q141.617 1189.04 143.422 1185.5 Q145.251 1181.93 145.251 1174.83 Q145.251 1167.7 143.422 1164.16 Q141.617 1160.59 137.982 1160.59 M137.982 1156.89 Q143.793 1156.89 146.848 1161.49 Q149.927 1166.08 149.927 1174.83 Q149.927 1183.55 146.848 1188.16 Q143.793 1192.74 137.982 1192.74 Q132.172 1192.74 129.094 1188.16 Q126.038 1183.55 126.038 1174.83 Q126.038 1166.08 129.094 1161.49 Q132.172 1156.89 137.982 1156.89 Z" fill="#000000" fill-rule="nonzero" fill-opacity="1"></path><path clip-path="url(#clip760)" d="M186.315 1166.61 L175.737 1177.24 L186.315 1187.81 L183.561 1190.61 L172.936 1179.99 L162.311 1190.61 L159.58 1187.81 L170.135 1177.24 L159.58 1166.61 L162.311 1163.81 L172.936 1174.43 L183.561 1163.81 L186.315 1166.61 Z" fill="#000000" fill-rule="nonzero" fill-opacity="1"></path><path clip-path="url(#clip760)" d="M198.677 1188.14 L206.315 1188.14 L206.315 1161.77 L198.005 1163.44 L198.005 1159.18 L206.269 1157.51 L210.945 1157.51 L210.945 1188.14 L218.584 1188.14 L218.584 1192.07 L198.677 1192.07 L198.677 1188.14 Z" fill="#000000" fill-rule="nonzero" fill-opacity="1"></path><path clip-path="url(#clip760)" d="M238.028 1160.59 Q234.417 1160.59 232.588 1164.16 Q230.783 1167.7 230.783 1174.83 Q230.783 1181.93 232.588 1185.5 Q234.417 1189.04 238.028 1189.04 Q241.662 1189.04 243.468 1185.5 Q245.297 1181.93 245.297 1174.83 Q245.297 1167.7 243.468 1164.16 Q241.662 1160.59 238.028 1160.59 M238.028 1156.89 Q243.838 1156.89 246.894 1161.49 Q249.973 1166.08 249.973 1174.83 Q249.973 1183.55 246.894 1188.16 Q243.838 1192.74 238.028 1192.74 Q232.218 1192.74 229.139 1188.16 Q226.084 1183.55 226.084 1174.83 Q226.084 1166.08 229.139 1161.49 Q232.218 1156.89 238.028 1156.89 Z" fill="#000000" fill-rule="nonzero" fill-opacity="1"></path><path clip-path="url(#clip760)" d="M262.649 1139.89 L253.057 1154.88 L262.649 1154.88 L262.649 1139.89 M261.652 1136.58 L266.429 1136.58 L266.429 1154.88 L270.435 1154.88 L270.435 1158.04 L266.429 1158.04 L266.429 1164.66 L262.649 1164.66 L262.649 1158.04 L249.973 1158.04 L249.973 1154.38 L261.652 1136.58 Z" fill="#000000" fill-rule="nonzero" fill-opacity="1"></path><path clip-path="url(#clip760)" d="M52.6356 877.986 L70.992 877.986 L70.992 881.921 L56.918 881.921 L56.918 890.393 Q57.9365 890.046 58.955 889.884 Q59.9736 889.699 60.9921 889.699 Q66.7791 889.699 70.1587 892.87 Q73.5383 896.041 73.5383 901.458 Q73.5383 907.037 70.0661 910.138 Q66.5939 913.217 60.2745 913.217 Q58.0986 913.217 55.8301 912.847 Q53.5847 912.476 51.1773 911.736 L51.1773 907.037 Q53.2606 908.171 55.4828 908.726 Q57.7051 909.282 60.1819 909.282 Q64.1865 909.282 66.5245 907.175 Q68.8624 905.069 68.8624 901.458 Q68.8624 897.847 66.5245 895.74 Q64.1865 893.634 60.1819 893.634 Q58.3069 893.634 56.4319 894.051 Q54.5801 894.467 52.6356 895.347 L52.6356 877.986 Z" fill="#000000" fill-rule="nonzero" fill-opacity="1"></path><path clip-path="url(#clip760)" d="M82.7512 906.666 L87.6354 906.666 L87.6354 912.546 L82.7512 912.546 L82.7512 906.666 Z" fill="#000000" fill-rule="nonzero" fill-opacity="1"></path><path clip-path="url(#clip760)" d="M107.821 881.065 Q104.209 881.065 102.381 884.629 Q100.575 888.171 100.575 895.301 Q100.575 902.407 102.381 905.972 Q104.209 909.513 107.821 909.513 Q111.455 909.513 113.26 905.972 Q115.089 902.407 115.089 895.301 Q115.089 888.171 113.26 884.629 Q111.455 881.065 107.821 881.065 M107.821 877.361 Q113.631 877.361 116.686 881.967 Q119.765 886.551 119.765 895.301 Q119.765 904.027 116.686 908.634 Q113.631 913.217 107.821 913.217 Q102.01 913.217 98.9317 908.634 Q95.8761 904.027 95.8761 895.301 Q95.8761 886.551 98.9317 881.967 Q102.01 877.361 107.821 877.361 Z" fill="#000000" fill-rule="nonzero" fill-opacity="1"></path><path clip-path="url(#clip760)" d="M137.982 881.065 Q134.371 881.065 132.543 884.629 Q130.737 888.171 130.737 895.301 Q130.737 902.407 132.543 905.972 Q134.371 909.513 137.982 909.513 Q141.617 909.513 143.422 905.972 Q145.251 902.407 145.251 895.301 Q145.251 888.171 143.422 884.629 Q141.617 881.065 137.982 881.065 M137.982 877.361 Q143.793 877.361 146.848 881.967 Q149.927 886.551 149.927 895.301 Q149.927 904.027 146.848 908.634 Q143.793 913.217 137.982 913.217 Q132.172 913.217 129.094 908.634 Q126.038 904.027 126.038 895.301 Q126.038 886.551 129.094 881.967 Q132.172 877.361 137.982 877.361 Z" fill="#000000" fill-rule="nonzero" fill-opacity="1"></path><path clip-path="url(#clip760)" d="M186.315 887.083 L175.737 897.708 L186.315 908.287 L183.561 911.088 L172.936 900.463 L162.311 911.088 L159.58 908.287 L170.135 897.708 L159.58 887.083 L162.311 884.282 L172.936 894.907 L183.561 884.282 L186.315 887.083 Z" fill="#000000" fill-rule="nonzero" fill-opacity="1"></path><path clip-path="url(#clip760)" d="M198.677 908.611 L206.315 908.611 L206.315 882.245 L198.005 883.912 L198.005 879.652 L206.269 877.986 L210.945 877.986 L210.945 908.611 L218.584 908.611 L218.584 912.546 L198.677 912.546 L198.677 908.611 Z" fill="#000000" fill-rule="nonzero" fill-opacity="1"></path><path clip-path="url(#clip760)" d="M238.028 881.065 Q234.417 881.065 232.588 884.629 Q230.783 888.171 230.783 895.301 Q230.783 902.407 232.588 905.972 Q234.417 909.513 238.028 909.513 Q241.662 909.513 243.468 905.972 Q245.297 902.407 245.297 895.301 Q245.297 888.171 243.468 884.629 Q241.662 881.065 238.028 881.065 M238.028 877.361 Q243.838 877.361 246.894 881.967 Q249.973 886.551 249.973 895.301 Q249.973 904.027 246.894 908.634 Q243.838 913.217 238.028 913.217 Q232.218 913.217 229.139 908.634 Q226.084 904.027 226.084 895.301 Q226.084 886.551 229.139 881.967 Q232.218 877.361 238.028 877.361 Z" fill="#000000" fill-rule="nonzero" fill-opacity="1"></path><path clip-path="url(#clip760)" d="M262.649 860.366 L253.057 875.355 L262.649 875.355 L262.649 860.366 M261.652 857.055 L266.429 857.055 L266.429 875.355 L270.435 875.355 L270.435 878.515 L266.429 878.515 L266.429 885.135 L262.649 885.135 L262.649 878.515 L249.973 878.515 L249.973 874.848 L261.652 857.055 Z" fill="#000000" fill-rule="nonzero" fill-opacity="1"></path><path clip-path="url(#clip760)" d="M51.4088 598.458 L73.6309 598.458 L73.6309 600.449 L61.0847 633.018 L56.2004 633.018 L68.0059 602.394 L51.4088 602.394 L51.4088 598.458 Z" fill="#000000" fill-rule="nonzero" fill-opacity="1"></path><path clip-path="url(#clip760)" d="M82.7512 627.139 L87.6354 627.139 L87.6354 633.018 L82.7512 633.018 L82.7512 627.139 Z" fill="#000000" fill-rule="nonzero" fill-opacity="1"></path><path clip-path="url(#clip760)" d="M97.8669 598.458 L116.223 598.458 L116.223 602.394 L102.149 602.394 L102.149 610.866 Q103.168 610.519 104.186 610.356 Q105.205 610.171 106.223 610.171 Q112.01 610.171 115.39 613.343 Q118.77 616.514 118.77 621.93 Q118.77 627.509 115.297 630.611 Q111.825 633.69 105.506 633.69 Q103.33 633.69 101.061 633.319 Q98.8159 632.949 96.4085 632.208 L96.4085 627.509 Q98.4919 628.643 100.714 629.199 Q102.936 629.755 105.413 629.755 Q109.418 629.755 111.756 627.648 Q114.094 625.542 114.094 621.93 Q114.094 618.319 111.756 616.213 Q109.418 614.106 105.413 614.106 Q103.538 614.106 101.663 614.523 Q99.8113 614.94 97.8669 615.819 L97.8669 598.458 Z" fill="#000000" fill-rule="nonzero" fill-opacity="1"></path><path clip-path="url(#clip760)" d="M137.982 601.537 Q134.371 601.537 132.543 605.102 Q130.737 608.644 130.737 615.773 Q130.737 622.88 132.543 626.444 Q134.371 629.986 137.982 629.986 Q141.617 629.986 143.422 626.444 Q145.251 622.88 145.251 615.773 Q145.251 608.644 143.422 605.102 Q141.617 601.537 137.982 601.537 M137.982 597.833 Q143.793 597.833 146.848 602.44 Q149.927 607.023 149.927 615.773 Q149.927 624.5 146.848 629.106 Q143.793 633.69 137.982 633.69 Q132.172 633.69 129.094 629.106 Q126.038 624.5 126.038 615.773 Q126.038 607.023 129.094 602.44 Q132.172 597.833 137.982 597.833 Z" fill="#000000" fill-rule="nonzero" fill-opacity="1"></path><path clip-path="url(#clip760)" d="M186.315 607.556 L175.737 618.181 L186.315 628.759 L183.561 631.56 L172.936 620.935 L162.311 631.56 L159.58 628.759 L170.135 618.181 L159.58 607.556 L162.311 604.755 L172.936 615.38 L183.561 604.755 L186.315 607.556 Z" fill="#000000" fill-rule="nonzero" fill-opacity="1"></path><path clip-path="url(#clip760)" d="M198.677 629.083 L206.315 629.083 L206.315 602.718 L198.005 604.384 L198.005 600.125 L206.269 598.458 L210.945 598.458 L210.945 629.083 L218.584 629.083 L218.584 633.018 L198.677 633.018 L198.677 629.083 Z" fill="#000000" fill-rule="nonzero" fill-opacity="1"></path><path clip-path="url(#clip760)" d="M238.028 601.537 Q234.417 601.537 232.588 605.102 Q230.783 608.644 230.783 615.773 Q230.783 622.88 232.588 626.444 Q234.417 629.986 238.028 629.986 Q241.662 629.986 243.468 626.444 Q245.297 622.88 245.297 615.773 Q245.297 608.644 243.468 605.102 Q241.662 601.537 238.028 601.537 M238.028 597.833 Q243.838 597.833 246.894 602.44 Q249.973 607.023 249.973 615.773 Q249.973 624.5 246.894 629.106 Q243.838 633.69 238.028 633.69 Q232.218 633.69 229.139 629.106 Q226.084 624.5 226.084 615.773 Q226.084 607.023 229.139 602.44 Q232.218 597.833 238.028 597.833 Z" fill="#000000" fill-rule="nonzero" fill-opacity="1"></path><path clip-path="url(#clip760)" d="M262.649 580.838 L253.057 595.828 L262.649 595.828 L262.649 580.838 M261.652 577.528 L266.429 577.528 L266.429 595.828 L270.435 595.828 L270.435 598.988 L266.429 598.988 L266.429 605.608 L262.649 605.608 L262.649 598.988 L249.973 598.988 L249.973 595.32 L261.652 577.528 Z" fill="#000000" fill-rule="nonzero" fill-opacity="1"></path><path clip-path="url(#clip760)" d="M55.6941 349.556 L63.3329 349.556 L63.3329 323.19 L55.0228 324.857 L55.0228 320.598 L63.2866 318.931 L67.9625 318.931 L67.9625 349.556 L75.6014 349.556 L75.6014 353.491 L55.6941 353.491 L55.6941 349.556 Z" fill="#000000" fill-rule="nonzero" fill-opacity="1"></path><path clip-path="url(#clip760)" d="M85.0458 347.611 L89.93 347.611 L89.93 353.491 L85.0458 353.491 L85.0458 347.611 Z" fill="#000000" fill-rule="nonzero" fill-opacity="1"></path><path clip-path="url(#clip760)" d="M110.115 322.01 Q106.504 322.01 104.675 325.574 Q102.87 329.116 102.87 336.246 Q102.87 343.352 104.675 346.917 Q106.504 350.459 110.115 350.459 Q113.749 350.459 115.555 346.917 Q117.384 343.352 117.384 336.246 Q117.384 329.116 115.555 325.574 Q113.749 322.01 110.115 322.01 M110.115 318.306 Q115.925 318.306 118.981 322.912 Q122.059 327.496 122.059 336.246 Q122.059 344.972 118.981 349.579 Q115.925 354.162 110.115 354.162 Q104.305 354.162 101.226 349.579 Q98.1707 344.972 98.1707 336.246 Q98.1707 327.496 101.226 322.912 Q104.305 318.306 110.115 318.306 Z" fill="#000000" fill-rule="nonzero" fill-opacity="1"></path><path clip-path="url(#clip760)" d="M140.277 322.01 Q136.666 322.01 134.837 325.574 Q133.032 329.116 133.032 336.246 Q133.032 343.352 134.837 346.917 Q136.666 350.459 140.277 350.459 Q143.911 350.459 145.717 346.917 Q147.545 343.352 147.545 336.246 Q147.545 329.116 145.717 325.574 Q143.911 322.01 140.277 322.01 M140.277 318.306 Q146.087 318.306 149.143 322.912 Q152.221 327.496 152.221 336.246 Q152.221 344.972 149.143 349.579 Q146.087 354.162 140.277 354.162 Q134.467 354.162 131.388 349.579 Q128.333 344.972 128.333 336.246 Q128.333 327.496 131.388 322.912 Q134.467 318.306 140.277 318.306 Z" fill="#000000" fill-rule="nonzero" fill-opacity="1"></path><path clip-path="url(#clip760)" d="M188.61 328.028 L178.031 338.653 L188.61 349.232 L185.855 352.033 L175.23 341.408 L164.606 352.033 L161.874 349.232 L172.43 338.653 L161.874 328.028 L164.606 325.227 L175.23 335.852 L185.855 325.227 L188.61 328.028 Z" fill="#000000" fill-rule="nonzero" fill-opacity="1"></path><path clip-path="url(#clip760)" d="M200.971 349.556 L208.61 349.556 L208.61 323.19 L200.3 324.857 L200.3 320.598 L208.564 318.931 L213.24 318.931 L213.24 349.556 L220.878 349.556 L220.878 353.491 L200.971 353.491 L200.971 349.556 Z" fill="#000000" fill-rule="nonzero" fill-opacity="1"></path><path clip-path="url(#clip760)" d="M240.323 322.01 Q236.712 322.01 234.883 325.574 Q233.077 329.116 233.077 336.246 Q233.077 343.352 234.883 346.917 Q236.712 350.459 240.323 350.459 Q243.957 350.459 245.762 346.917 Q247.591 343.352 247.591 336.246 Q247.591 329.116 245.762 325.574 Q243.957 322.01 240.323 322.01 M240.323 318.306 Q246.133 318.306 249.188 322.912 Q252.267 327.496 252.267 336.246 Q252.267 344.972 249.188 349.579 Q246.133 354.162 240.323 354.162 Q234.513 354.162 231.434 349.579 Q228.378 344.972 228.378 336.246 Q228.378 327.496 231.434 322.912 Q234.513 318.306 240.323 318.306 Z" fill="#000000" fill-rule="nonzero" fill-opacity="1"></path><path clip-path="url(#clip760)" d="M253.452 298.001 L268.367 298.001 L268.367 301.198 L256.931 301.198 L256.931 308.082 Q257.759 307.799 258.586 307.668 Q259.414 307.517 260.242 307.517 Q264.944 307.517 267.689 310.094 Q270.435 312.671 270.435 317.072 Q270.435 321.604 267.614 324.125 Q264.793 326.626 259.659 326.626 Q257.891 326.626 256.047 326.325 Q254.223 326.024 252.267 325.422 L252.267 321.604 Q253.96 322.526 255.765 322.977 Q257.571 323.429 259.583 323.429 Q262.837 323.429 264.737 321.717 Q266.636 320.006 266.636 317.072 Q266.636 314.138 264.737 312.426 Q262.837 310.715 259.583 310.715 Q258.06 310.715 256.536 311.053 Q255.032 311.392 253.452 312.106 L253.452 298.001 Z" fill="#000000" fill-rule="nonzero" fill-opacity="1"></path><path clip-path="url(#clip760)" d="M1213.01 12.096 L1225.2 12.096 L1240.64 53.2532 L1256.15 12.096 L1268.35 12.096 L1268.35 72.576 L1260.37 72.576 L1260.37 19.4686 L1244.77 60.9499 L1236.55 60.9499 L1220.95 19.4686 L1220.95 72.576 L1213.01 72.576 L1213.01 12.096 Z" fill="#000000" fill-rule="nonzero" fill-opacity="1"></path><path clip-path="url(#clip760)" d="M1301.85 32.4315 Q1295.85 32.4315 1292.37 37.1306 Q1288.88 41.7891 1288.88 49.9314 Q1288.88 58.0738 1292.33 62.7728 Q1295.81 67.4314 1301.85 67.4314 Q1307.8 67.4314 1311.29 62.7323 Q1314.77 58.0333 1314.77 49.9314 Q1314.77 41.8701 1311.29 37.1711 Q1307.8 32.4315 1301.85 32.4315 M1301.85 26.1121 Q1311.57 26.1121 1317.12 32.4315 Q1322.67 38.7509 1322.67 49.9314 Q1322.67 61.0714 1317.12 67.4314 Q1311.57 73.7508 1301.85 73.7508 Q1292.08 73.7508 1286.53 67.4314 Q1281.03 61.0714 1281.03 49.9314 Q1281.03 38.7509 1286.53 32.4315 Q1292.08 26.1121 1301.85 26.1121 Z" fill="#000000" fill-rule="nonzero" fill-opacity="1"></path><path clip-path="url(#clip760)" d="M1364.88 34.0924 L1364.88 9.54393 L1372.33 9.54393 L1372.33 72.576 L1364.88 72.576 L1364.88 65.7705 Q1362.53 69.8214 1358.92 71.8063 Q1355.36 73.7508 1350.34 73.7508 Q1342.11 73.7508 1336.93 67.1883 Q1331.78 60.6258 1331.78 49.9314 Q1331.78 39.2371 1336.93 32.6746 Q1342.11 26.1121 1350.34 26.1121 Q1355.36 26.1121 1358.92 28.0971 Q1362.53 30.0415 1364.88 34.0924 M1339.48 49.9314 Q1339.48 58.1548 1342.84 62.8538 Q1346.24 67.5124 1352.16 67.5124 Q1358.07 67.5124 1361.48 62.8538 Q1364.88 58.1548 1364.88 49.9314 Q1364.88 41.7081 1361.48 37.0496 Q1358.07 32.3505 1352.16 32.3505 Q1346.24 32.3505 1342.84 37.0496 Q1339.48 41.7081 1339.48 49.9314 Z" fill="#000000" fill-rule="nonzero" fill-opacity="1"></path><path clip-path="url(#clip760)" d="M1426.49 48.0275 L1426.49 51.6733 L1392.22 51.6733 Q1392.71 59.3701 1396.84 63.421 Q1401.01 67.4314 1408.43 67.4314 Q1412.72 67.4314 1416.73 66.3781 Q1420.78 65.3249 1424.75 63.2184 L1424.75 70.267 Q1420.74 71.9684 1416.53 72.8596 Q1412.32 73.7508 1407.98 73.7508 Q1397.12 73.7508 1390.76 67.4314 Q1384.44 61.1119 1384.44 50.3365 Q1384.44 39.1965 1390.44 32.6746 Q1396.48 26.1121 1406.68 26.1121 Q1415.84 26.1121 1421.15 32.0264 Q1426.49 37.9003 1426.49 48.0275 M1419.04 45.84 Q1418.96 39.7232 1415.6 36.0774 Q1412.27 32.4315 1406.77 32.4315 Q1400.53 32.4315 1396.76 35.9558 Q1393.03 39.4801 1392.47 45.8805 L1419.04 45.84 Z" fill="#000000" fill-rule="nonzero" fill-opacity="1"></path><path clip-path="url(#clip760)" d="M1438.73 9.54393 L1446.18 9.54393 L1446.18 72.576 L1438.73 72.576 L1438.73 9.54393 Z" fill="#000000" fill-rule="nonzero" fill-opacity="1"></path><polyline clip-path="url(#clip762)" style="stroke:#009af9; stroke-linecap:round; stroke-linejoin:round; stroke-width:4; stroke-opacity:1; fill:none" points="306.435,553.385 727.951,553.403 917.881,553.408 1231.22,553.415 1487.61,553.419 1787.29,553.423 2074.4,553.428 2377.49,553.432 2679.45,553.436 2988.07,553.44 3297.97,553.444 3611.08,553.449 3925.58,553.453 4241.82,553.457 4559.11,553.461 4877.41,553.466 5196.45,553.47 5516.13,553.474 5836.35,553.479 6157.12,553.483 6478.58,553.487 6801.18,553.492 7125.98,553.496 7455.34,553.501 7793.81,553.505 8149.02,553.51 8531.44,553.515 8953.98,553.521 9432.68,553.527 9989.55,553.535 10655.6,553.544 11476.8,553.555 12527,553.569 13903.2,553.588 15588.3,553.611 17319.3,553.634 18894.9,553.656 20297.5,553.675 21594.1,553.692 22857,553.709 24133,553.727 25440.6,553.744 26777.7,553.762 29485.3,553.799 33083,553.848 40329.1,553.946 56404,554.164 168924,555.686 247745,556.75 398116,558.778 608688,561.61 906378,565.598 1.303e+06,570.883 1.81207e+06,577.621 2.44143e+06,585.879 3.19434e+06,595.655 4.06872e+06,606.87 4.1943e+06,619.378 4.1943e+06,632.983 4.1943e+06,647.463 4.1943e+06,662.585 4.1943e+06,678.127 4.1943e+06,693.885 4.1943e+06,709.684 4.1943e+06,725.383 4.1943e+06,740.869 4.1943e+06,756.06 4.1943e+06,770.9 4.1943e+06,785.354 4.1943e+06,791.838 "></polyline>
<polyline clip-path="url(#clip762)" style="stroke:#e26f46; stroke-linecap:round; stroke-linejoin:round; stroke-width:4; stroke-opacity:1; fill:none" points="306.435,162.047 727.951,1021.06 917.881,1188.34 1231.22,1333.63 1487.61,1389.51 1787.29,1421.25 2074.4,1435.32 2377.49,1442.2 2679.45,1445.3 2988.07,1446.73 3297.97,1447.36 3611.08,1447.65 3925.58,1447.77 4241.82,1447.83 4559.11,1447.85 4877.41,1447.86 5196.45,1447.87 5516.13,1447.87 5836.35,1447.87 6157.12,1447.87 6478.58,1447.87 6801.18,1447.87 7125.98,1447.87 7455.34,1447.87 7793.81,1447.87 8149.02,1447.87 8531.44,1447.87 8953.98,1447.87 9432.68,1447.87 9989.55,1447.87 10655.6,1447.87 11476.8,1447.87 12527,1447.87 13903.2,1447.87 15588.3,1447.87 17319.3,1447.87 18894.9,1447.87 20297.5,1447.87 21594.1,1447.87 22857,1447.87 24133,1447.87 25440.6,1447.87 26777.7,1447.87 29485.3,1447.87 33083,1447.87 40329.1,1447.87 56404,1447.87 168924,1447.87 247745,1447.87 398116,1447.87 608688,1447.87 906378,1447.87 1.303e+06,1447.87 1.81207e+06,1447.87 2.44143e+06,1447.87 3.19434e+06,1447.87 4.06872e+06,1447.87 4.1943e+06,1447.87 4.1943e+06,1447.87 4.1943e+06,1447.87 4.1943e+06,1447.87 4.1943e+06,1447.87 4.1943e+06,1447.87 4.1943e+06,1447.87 4.1943e+06,1447.87 4.1943e+06,1447.87 4.1943e+06,1447.87 4.1943e+06,1447.87 4.1943e+06,1447.87 4.1943e+06,1447.87 "></polyline>
<path clip-path="url(#clip760)" d="M1939.17 324.425 L2284.55 324.425 L2284.55 168.905 L1939.17 168.905  Z" fill="#ffffff" fill-rule="evenodd" fill-opacity="1"></path>
<polyline clip-path="url(#clip760)" style="stroke:#000000; stroke-linecap:round; stroke-linejoin:round; stroke-width:4; stroke-opacity:1; fill:none" points="1939.17,324.425 2284.55,324.425 2284.55,168.905 1939.17,168.905 1939.17,324.425 "></polyline>
<polyline clip-path="url(#clip760)" style="stroke:#009af9; stroke-linecap:round; stroke-linejoin:round; stroke-width:4; stroke-opacity:1; fill:none" points="1961.91,220.745 2098.33,220.745 "></polyline>
<path clip-path="url(#clip760)" d="M2122.64 203.465 L2127.67 203.465 L2136.25 216.312 L2144.89 203.465 L2149.91 203.465 L2138.8 220.062 L2150.65 238.025 L2145.63 238.025 L2135.91 223.326 L2126.11 238.025 L2121.07 238.025 L2133.41 219.576 L2122.64 203.465 Z" fill="#000000" fill-rule="nonzero" fill-opacity="1"></path><path clip-path="url(#clip760)" d="M2188.2 212.863 L2188.2 216.891 Q2186.39 215.965 2184.45 215.502 Q2182.5 215.039 2180.42 215.039 Q2177.25 215.039 2175.65 216.011 Q2174.08 216.983 2174.08 218.928 Q2174.08 220.409 2175.21 221.265 Q2176.35 222.099 2179.77 222.863 L2181.23 223.187 Q2185.77 224.159 2187.67 225.941 Q2189.59 227.701 2189.59 230.872 Q2189.59 234.483 2186.72 236.589 Q2183.87 238.696 2178.87 238.696 Q2176.79 238.696 2174.52 238.279 Q2172.27 237.886 2169.77 237.076 L2169.77 232.677 Q2172.13 233.904 2174.42 234.529 Q2176.72 235.131 2178.96 235.131 Q2181.97 235.131 2183.59 234.113 Q2185.21 233.071 2185.21 231.196 Q2185.21 229.46 2184.03 228.534 Q2182.87 227.608 2178.92 226.752 L2177.43 226.404 Q2173.48 225.571 2171.72 223.858 Q2169.96 222.122 2169.96 219.113 Q2169.96 215.455 2172.55 213.465 Q2175.14 211.474 2179.91 211.474 Q2182.27 211.474 2184.36 211.821 Q2186.44 212.168 2188.2 212.863 Z" fill="#000000" fill-rule="nonzero" fill-opacity="1"></path><path clip-path="url(#clip760)" d="M2196.37 212.099 L2200.63 212.099 L2200.63 238.025 L2196.37 238.025 L2196.37 212.099 M2196.37 202.006 L2200.63 202.006 L2200.63 207.4 L2196.37 207.4 L2196.37 202.006 Z" fill="#000000" fill-rule="nonzero" fill-opacity="1"></path><path clip-path="url(#clip760)" d="M2226.6 216.034 L2226.6 202.006 L2230.86 202.006 L2230.86 238.025 L2226.6 238.025 L2226.6 234.136 Q2225.26 236.451 2223.2 237.585 Q2221.16 238.696 2218.29 238.696 Q2213.59 238.696 2210.63 234.946 Q2207.69 231.196 2207.69 225.085 Q2207.69 218.974 2210.63 215.224 Q2213.59 211.474 2218.29 211.474 Q2221.16 211.474 2223.2 212.608 Q2225.26 213.719 2226.6 216.034 M2212.09 225.085 Q2212.09 229.784 2214.01 232.469 Q2215.95 235.131 2219.33 235.131 Q2222.71 235.131 2224.66 232.469 Q2226.6 229.784 2226.6 225.085 Q2226.6 220.386 2224.66 217.724 Q2222.71 215.039 2219.33 215.039 Q2215.95 215.039 2214.01 217.724 Q2212.09 220.386 2212.09 225.085 Z" fill="#000000" fill-rule="nonzero" fill-opacity="1"></path><path clip-path="url(#clip760)" d="M2261.81 223.997 L2261.81 226.08 L2242.23 226.08 Q2242.5 230.478 2244.86 232.793 Q2247.25 235.085 2251.48 235.085 Q2253.94 235.085 2256.23 234.483 Q2258.54 233.881 2260.81 232.677 L2260.81 236.705 Q2258.52 237.677 2256.11 238.187 Q2253.71 238.696 2251.23 238.696 Q2245.03 238.696 2241.39 235.085 Q2237.78 231.474 2237.78 225.316 Q2237.78 218.951 2241.21 215.224 Q2244.66 211.474 2250.49 211.474 Q2255.72 211.474 2258.75 214.853 Q2261.81 218.21 2261.81 223.997 M2257.55 222.747 Q2257.5 219.252 2255.58 217.168 Q2253.68 215.085 2250.54 215.085 Q2246.97 215.085 2244.82 217.099 Q2242.69 219.113 2242.36 222.77 L2257.55 222.747 Z" fill="#000000" fill-rule="nonzero" fill-opacity="1"></path><polyline clip-path="url(#clip760)" style="stroke:#e26f46; stroke-linecap:round; stroke-linejoin:round; stroke-width:4; stroke-opacity:1; fill:none" points="1961.91,272.585 2098.33,272.585 "></polyline>
<path clip-path="url(#clip760)" d="M2121.07 255.305 L2126.09 255.305 L2135.67 269.518 L2145.19 255.305 L2150.21 255.305 L2137.99 273.406 L2137.99 289.865 L2133.29 289.865 L2133.29 273.406 L2121.07 255.305 Z" fill="#000000" fill-rule="nonzero" fill-opacity="1"></path><path clip-path="url(#clip760)" d="M2186.18 264.703 L2186.18 268.731 Q2184.38 267.805 2182.43 267.342 Q2180.49 266.879 2178.41 266.879 Q2175.23 266.879 2173.64 267.851 Q2172.06 268.823 2172.06 270.768 Q2172.06 272.249 2173.2 273.105 Q2174.33 273.939 2177.76 274.703 L2179.22 275.027 Q2183.75 275.999 2185.65 277.781 Q2187.57 279.541 2187.57 282.712 Q2187.57 286.323 2184.7 288.429 Q2181.86 290.536 2176.86 290.536 Q2174.77 290.536 2172.5 290.119 Q2170.26 289.726 2167.76 288.916 L2167.76 284.517 Q2170.12 285.744 2172.41 286.369 Q2174.7 286.971 2176.95 286.971 Q2179.96 286.971 2181.58 285.953 Q2183.2 284.911 2183.2 283.036 Q2183.2 281.3 2182.02 280.374 Q2180.86 279.448 2176.9 278.592 L2175.42 278.244 Q2171.46 277.411 2169.7 275.698 Q2167.94 273.962 2167.94 270.953 Q2167.94 267.295 2170.54 265.305 Q2173.13 263.314 2177.9 263.314 Q2180.26 263.314 2182.34 263.661 Q2184.42 264.008 2186.18 264.703 Z" fill="#000000" fill-rule="nonzero" fill-opacity="1"></path><path clip-path="url(#clip760)" d="M2194.35 263.939 L2198.61 263.939 L2198.61 289.865 L2194.35 289.865 L2194.35 263.939 M2194.35 253.846 L2198.61 253.846 L2198.61 259.24 L2194.35 259.24 L2194.35 253.846 Z" fill="#000000" fill-rule="nonzero" fill-opacity="1"></path><path clip-path="url(#clip760)" d="M2224.59 267.874 L2224.59 253.846 L2228.85 253.846 L2228.85 289.865 L2224.59 289.865 L2224.59 285.976 Q2223.24 288.291 2221.18 289.425 Q2219.15 290.536 2216.28 290.536 Q2211.58 290.536 2208.61 286.786 Q2205.67 283.036 2205.67 276.925 Q2205.67 270.814 2208.61 267.064 Q2211.58 263.314 2216.28 263.314 Q2219.15 263.314 2221.18 264.448 Q2223.24 265.559 2224.59 267.874 M2210.07 276.925 Q2210.07 281.624 2211.99 284.309 Q2213.94 286.971 2217.32 286.971 Q2220.7 286.971 2222.64 284.309 Q2224.59 281.624 2224.59 276.925 Q2224.59 272.226 2222.64 269.564 Q2220.7 266.879 2217.32 266.879 Q2213.94 266.879 2211.99 269.564 Q2210.07 272.226 2210.07 276.925 Z" fill="#000000" fill-rule="nonzero" fill-opacity="1"></path><path clip-path="url(#clip760)" d="M2259.79 275.837 L2259.79 277.92 L2240.21 277.92 Q2240.49 282.318 2242.85 284.633 Q2245.23 286.925 2249.47 286.925 Q2251.92 286.925 2254.22 286.323 Q2256.53 285.721 2258.8 284.517 L2258.8 288.545 Q2256.51 289.517 2254.1 290.027 Q2251.69 290.536 2249.22 290.536 Q2243.01 290.536 2239.38 286.925 Q2235.77 283.314 2235.77 277.156 Q2235.77 270.791 2239.19 267.064 Q2242.64 263.314 2248.48 263.314 Q2253.71 263.314 2256.74 266.693 Q2259.79 270.05 2259.79 275.837 M2255.54 274.587 Q2255.49 271.092 2253.57 269.008 Q2251.67 266.925 2248.52 266.925 Q2244.96 266.925 2242.8 268.939 Q2240.67 270.953 2240.35 274.61 L2255.54 274.587 Z" fill="#000000" fill-rule="nonzero" fill-opacity="1"></path></svg>